<?xml version="1.0" encoding="utf-8"?>
<!-- Generator: Adobe Illustrator 15.0.0, SVG Export Plug-In . SVG Version: 6.00 Build 0)  -->
<!DOCTYPE svg PUBLIC "-//W3C//DTD SVG 1.1//EN" "http://www.w3.org/Graphics/SVG/1.1/DTD/svg11.dtd">
<svg version="1.1" id="Layer_1" xmlns="http://www.w3.org/2000/svg" xmlns:xlink="http://www.w3.org/1999/xlink" x="0px" y="0px"
	  viewBox="0 0 604.588 372.895" enable-background="new 0 0 604.588 372.895"
	 xml:space="preserve">
<g>
	<path fill="#010202" d="M256.524,501.223h-62.5c-10.357,0-18.75,8.393-18.75,18.75v62.5c0,10.359,8.393,18.75,18.75,18.75h62.5
		c10.356,0,18.75-8.391,18.75-18.75v-62.5C275.274,509.615,266.881,501.223,256.524,501.223z M225.274,588.641
		c-20.631,0-37.418-16.793-37.418-37.418c0-20.621,16.787-37.418,37.418-37.418c20.631,0,37.413,16.789,37.413,37.418
		C262.688,571.854,245.905,588.641,225.274,588.641z"/>
	<path fill="#010202" d="M223.537,540.83c-5.299-9.416-11.007-17.332-11.85-18.488c-8.946,4.22-15.63,12.464-17.699,22.381
		C195.417,544.74,208.585,544.797,223.537,540.83z"/>
	<path fill="#010202" d="M227.505,551.546l1.26-0.37c-0.802-1.819-1.679-3.639-2.591-5.428c-15.964,4.775-31.456,4.574-32.854,4.544
		l-0.016,0.974c0.008,8.211,3.112,15.705,8.221,21.375C202.248,571.4,211.017,556.877,227.505,551.546z"/>
	<path fill="#010202" d="M232.159,543.662c0.743,1.525,1.457,3.076,2.125,4.631l0.684,1.649c10.637-1.337,21.202,0.808,22.251,1.03
		c-0.06-7.543-2.75-14.477-7.201-19.914C249.347,531.969,243.988,538.836,232.159,543.662z"/>
	<path fill="#010202" d="M230.73,556.531c-18.028,6.275-24.499,18.789-25.075,19.961c5.417,4.223,12.23,6.746,19.619,6.746
		c4.431,0.004,8.655-0.9,12.487-2.539c-0.476-2.801-2.331-12.582-6.818-24.24L230.73,556.531z"/>
	<path fill="#010202" d="M246.466,527.363c-5.653-5.012-13.068-8.059-21.191-8.059c-2.575,0-5.089,0.308-7.488,0.889
		c0.881,1.188,6.689,9.092,11.924,18.709C241.082,534.651,245.885,528.181,246.466,527.363z"/>
	<path fill="#010202" d="M236.921,554.984c4.185,11.488,5.883,20.836,6.212,22.789c7.159-4.846,12.269-12.529,13.689-21.438
		C255.743,555.998,246.941,553.371,236.921,554.984z"/>
</g>
<path fill="#010202" d="M253.858,388.333h-62.5c-10.357,0-18.75,8.393-18.75,18.75v62.5c0,10.36,8.393,18.75,18.75,18.75h62.5
	c10.356,0,18.75-8.391,18.75-18.75v-62.5C272.608,396.727,264.214,388.333,253.858,388.333z M247.485,427.111l0.035,1.591
	c0,16.272-12.381,35.022-35.027,35.022c-6.949,0-13.415-2.035-18.868-5.53c0.966,0.112,1.943,0.18,2.94,0.18
	c5.767,0,11.076-1.974,15.286-5.269c-5.386-0.098-9.93-3.662-11.498-8.553c0.755,0.145,1.516,0.217,2.318,0.217
	c1.126,0,2.213-0.149,3.244-0.428c-5.628-1.135-9.874-6.105-9.874-12.068v-0.159c1.66,0.925,3.554,1.478,5.577,1.547
	c-3.305-2.21-5.479-5.978-5.479-10.249c0-2.251,0.607-4.364,1.666-6.183c6.065,7.448,15.142,12.351,25.37,12.862
	c-0.211-0.902-0.313-1.848-0.313-2.809c0-6.79,5.51-12.305,12.31-12.305c3.542,0,6.738,1.496,8.989,3.886
	c2.802-0.555,5.438-1.581,7.818-2.983c-0.92,2.875-2.868,5.286-5.412,6.812c2.482-0.293,4.861-0.966,7.066-1.938
	C251.982,423.217,249.89,425.381,247.485,427.111z"/>
<path fill="#010202" d="M578.483,433.904h-23.75c-3.938,0-7.125,3.189-7.125,7.125v23.75c0,3.936,3.187,7.125,7.125,7.125h23.75
	c3.934,0,7.125-3.189,7.125-7.125v-23.75C585.608,437.094,582.417,433.904,578.483,433.904z M561.858,462.107h-4.75v-16.625h4.75
	V462.107z M559.629,444.463c-1.232,0-2.225-0.996-2.225-2.227s0.997-2.229,2.225-2.229c1.23,0.002,2.229,1.001,2.229,2.229
	C561.858,443.467,560.86,444.463,559.629,444.463z M578.483,462.107h-4.75v-10.279c0-1.203-0.344-2.047-1.823-2.047
	c-2.454,0-2.927,2.047-2.927,2.047v10.279h-4.75v-16.625h4.75v1.59c0.677-0.521,2.375-1.588,4.75-1.588
	c1.539,0,4.75,0.922,4.75,6.489V462.107z"/>
<g>
	<rect x="471.487" y="529.104" fill="none" width="99.998" height="99.999"/>
	<path fill="#010202" d="M548.409,556.027c-2.118,0-3.845-1.729-3.845-3.847v-7.691c0-2.12,1.727-3.847,3.845-3.847h7.691
		c2.12,0,3.848,1.727,3.848,3.847v7.691c0,2.118-1.728,3.847-3.848,3.847H548.409z"/>
	<path fill="#010202" d="M521.487,564.444c-2.794,0-5.371,0.817-7.587,2.164c0.691-0.216,1.411-0.357,2.167-0.357
		c4.109,0,7.432,3.328,7.432,7.438c0,4.102-3.322,7.438-7.432,7.438c-4.107,0-7.433-3.333-7.433-7.438
		c0-0.764,0.149-1.483,0.36-2.172c-1.353,2.221-2.172,4.796-2.172,7.587c0,8.104,6.559,14.663,14.666,14.663
		c8.095,0,14.669-6.559,14.669-14.663C536.158,570.998,529.583,564.444,521.487,564.444z"/>
	<g>
		<path fill="#010202" d="M521.487,556.027c12.738,0,23.077,10.332,23.077,23.076c0,12.749-10.339,23.077-23.077,23.077
			c-12.742,0-23.078-10.328-23.078-23.077C498.409,566.359,508.745,556.027,521.487,556.027 M521.487,548.336
			c-16.967,0-30.77,13.801-30.77,30.768c0,16.966,13.803,30.771,30.77,30.771c16.966,0,30.769-13.806,30.769-30.771
			C552.255,562.137,538.453,548.336,521.487,548.336L521.487,548.336z"/>
	</g>
	<path fill="#010202" d="M552.736,529.104h-62.499c-10.359,0-18.75,8.393-18.75,18.75v62.499c0,10.362,8.391,18.75,18.75,18.75
		h62.499c10.359,0,18.749-8.388,18.749-18.75v-62.499C571.485,537.496,563.095,529.104,552.736,529.104z M563.796,563.72h-25.146
		c3.667,4.089,5.913,9.465,5.913,15.384c0,12.749-10.339,23.077-23.077,23.077c-12.742,0-23.078-10.328-23.078-23.077
		c0-5.919,2.246-11.298,5.913-15.384h-25.144v-15.866c0-6.096,4.963-11.057,11.059-11.057h62.499
		c6.099,0,11.061,4.961,11.061,11.057V563.72z"/>
</g>
<g>
	<g>
		<path fill="#010202" d="M392.52,551.222h-63.158c-10.174,0-18.421,8.246-18.421,18.421v63.158
			c0,10.174,8.247,18.421,18.421,18.421h63.158c10.174,0,18.421-8.247,18.421-18.421v-63.158
			C410.941,559.468,402.694,551.222,392.52,551.222z M393.103,591.641c-2.492,5.463-7.227,9.629-13.716,10.866
			c-3.528,0.678-7.843,0.347-11.985,0.347c-7.986,0-16.696-0.247-24.586,0c-3.927,0.124-6.598,1.753-8.625,3.708
			c-2.084,2.01-3.791,4.904-4.057,8.281c-0.587,7.524,4.414,12.89,10.439,14.146c7.495,1.561,13.444-3.215,15.266-8.799
			c1.028-3.143,0.622-6.92,0.691-11.557h5.864c1.137,11.05-1.63,18.197-7.419,22.6c-2.786,2.117-6.608,3.774-11.127,3.965
			c-8.767,0.37-15.666-5.387-18.283-11.901c-1.472-3.667-1.832-8.614-0.519-12.853c2.181-7.037,7.785-12.706,16.646-13.455
			c4.74-0.401,9.897-0.084,15.012-0.084h15.092c2.722,0,5.094,0.097,7.159-0.436c5.322-1.368,9.789-5.821,9.92-12.591
			c0.09-4.65-2.032-8.146-4.744-10.35c-2.938-2.392-6.99-3.729-11.644-2.59c-3.958,0.971-6.697,3.266-8.455,6.642
			c-1.792,3.447-1.697,7.756-1.55,13.454h-5.952c-0.524-8.264,0.371-13.96,3.536-18.458c2.987-4.245,7.929-7.61,14.32-8.023
			c7.97-0.509,13.349,3.375,16.73,7.937c1.745,2.354,3.097,5.14,3.539,8.8C395.083,584.836,394.475,588.63,393.103,591.641z"/>
	</g>
</g>
<path fill="#CDCCCC" d="M790.608,479h-24c-3.866,0-7,3.134-7,7v24c0,3.866,3.134,7,7,7h24c3.866,0,7-3.134,7-7v-24
	C797.608,482.134,794.474,479,790.608,479z"/>
<g>
	<path fill="#CDCCCC" d="M632.983,478.904h-23.75c-3.936,0-7.125,3.189-7.125,7.125v23.75c0,3.937,3.189,7.125,7.125,7.125h23.75
		c3.936,0,7.125-3.188,7.125-7.125v-23.75C640.108,482.094,636.918,478.904,632.983,478.904z M621.108,512.123
		c-7.84,0-14.219-6.381-14.219-14.219c0-7.836,6.379-14.219,14.219-14.219s14.217,6.38,14.217,14.219
		C635.325,505.744,628.948,512.123,621.108,512.123z"/>
	<path fill="#CDCCCC" d="M620.448,493.955c-2.014-3.578-4.183-6.586-4.503-7.025c-3.399,1.604-5.939,4.736-6.726,8.505
		C609.762,495.441,614.766,495.463,620.448,493.955z"/>
	<path fill="#CDCCCC" d="M621.956,498.027l0.479-0.141c-0.305-0.691-0.638-1.383-0.984-2.062
		c-6.066,1.814-11.953,1.738-12.484,1.727l-0.006,0.37c0.003,3.12,1.183,5.968,3.124,8.122
		C612.358,505.572,615.69,500.053,621.956,498.027z"/>
	<path fill="#CDCCCC" d="M623.724,495.031c0.282,0.58,0.554,1.169,0.808,1.76l0.26,0.627c4.042-0.508,8.057,0.307,8.455,0.392
		c-0.022-2.866-1.045-5.501-2.736-7.567C630.255,490.588,628.219,493.197,623.724,495.031z"/>
	<path fill="#CDCCCC" d="M623.181,499.922c-6.851,2.385-9.31,7.14-9.528,7.585c2.059,1.604,4.647,2.563,7.455,2.563
		c1.684,0.002,3.289-0.342,4.745-0.965c-0.181-1.064-0.886-4.781-2.591-9.211L623.181,499.922z"/>
	<path fill="#CDCCCC" d="M629.161,488.838c-2.148-1.904-4.966-3.062-8.053-3.062c-0.979,0-1.934,0.117-2.846,0.338
		c0.335,0.451,2.542,3.455,4.531,7.109C627.115,491.607,628.94,489.148,629.161,488.838z"/>
	<path fill="#CDCCCC" d="M625.534,499.334c1.59,4.365,2.235,7.918,2.36,8.66c2.721-1.842,4.662-4.762,5.202-8.146
		C632.686,499.719,629.341,498.721,625.534,499.334z"/>
</g>
<path fill="#CDCCCC" d="M580.483,478.904h-23.75c-3.936,0-7.125,3.189-7.125,7.125v23.75c0,3.937,3.189,7.125,7.125,7.125h23.75
	c3.936,0,7.125-3.188,7.125-7.125v-23.75C587.608,482.094,584.418,478.904,580.483,478.904z M578.061,493.64l0.014,0.604
	c0,6.184-4.705,13.309-13.311,13.309c-2.641,0-5.098-0.773-7.17-2.102c0.367,0.043,0.738,0.068,1.117,0.068
	c2.191,0,4.209-0.75,5.809-2.002c-2.047-0.037-3.773-1.392-4.369-3.25c0.287,0.055,0.576,0.082,0.881,0.082
	c0.428,0,0.841-0.057,1.232-0.162c-2.139-0.432-3.752-2.32-3.752-4.586v-0.061c0.631,0.352,1.351,0.562,2.119,0.588
	c-1.256-0.84-2.082-2.271-2.082-3.895c0-0.855,0.23-1.658,0.633-2.35c2.305,2.83,5.754,4.693,9.641,4.888
	c-0.08-0.343-0.119-0.702-0.119-1.067c0-2.58,2.094-4.676,4.678-4.676c1.346,0,2.561,0.568,3.416,1.477
	c1.064-0.211,2.066-0.601,2.971-1.134c-0.35,1.093-1.09,2.009-2.057,2.589c0.943-0.111,1.848-0.367,2.686-0.736
	C579.77,492.16,578.975,492.982,578.061,493.64z"/>
<path fill="#CDCCCC" d="M685.483,478.904h-23.75c-3.938,0-7.125,3.189-7.125,7.125v23.75c0,3.936,3.187,7.125,7.125,7.125h23.75
	c3.934,0,7.125-3.189,7.125-7.125v-23.75C692.608,482.094,689.417,478.904,685.483,478.904z M668.858,507.107h-4.75v-16.625h4.75
	V507.107z M666.629,489.463c-1.232,0-2.225-0.996-2.225-2.227s0.997-2.229,2.225-2.229c1.23,0.002,2.229,1.001,2.229,2.229
	C668.858,488.467,667.86,489.463,666.629,489.463z M685.483,507.107h-4.75v-10.279c0-1.203-0.344-2.047-1.823-2.047
	c-2.454,0-2.927,2.047-2.927,2.047v10.279h-4.75v-16.625h4.75v1.59c0.677-0.521,2.375-1.588,4.75-1.588
	c1.539,0,4.75,0.922,4.75,6.489V507.107z"/>
<rect x="707.108" y="478.904" fill="none" width="38" height="38"/>
<g>
	<path fill="#CDCCCC" d="M736.338,489.136c-0.805,0-1.461-0.657-1.461-1.462v-2.923c0-0.806,0.656-1.462,1.461-1.462h2.923
		c0.806,0,1.462,0.656,1.462,1.462v2.923c0,0.805-0.656,1.462-1.462,1.462H736.338z"/>
	<path fill="#CDCCCC" d="M726.108,492.334c-1.062,0-2.041,0.311-2.883,0.822c0.263-0.082,0.536-0.136,0.823-0.136
		c1.562,0,2.824,1.265,2.824,2.826c0,1.559-1.263,2.826-2.824,2.826c-1.561,0-2.824-1.267-2.824-2.826
		c0-0.29,0.057-0.563,0.137-0.825c-0.514,0.844-0.825,1.822-0.825,2.883c0,3.08,2.492,5.572,5.573,5.572
		c3.076,0,5.574-2.492,5.574-5.572S729.185,492.334,726.108,492.334z"/>
	<g>
		<path fill="#CDCCCC" d="M726.108,489.136c4.841,0,8.77,3.926,8.77,8.769c0,4.845-3.929,8.77-8.77,8.77
			c-4.842,0-8.77-3.925-8.77-8.77C717.338,493.062,721.266,489.136,726.108,489.136 M726.108,486.213
			c-6.447,0-11.692,5.244-11.692,11.691s5.245,11.693,11.692,11.693s11.692-5.246,11.692-11.693S732.555,486.213,726.108,486.213
			L726.108,486.213z"/>
	</g>
	<path fill="#CDCCCC" d="M737.983,478.904h-23.75c-3.937,0-7.125,3.189-7.125,7.125v23.75c0,3.938,3.188,7.125,7.125,7.125h23.75
		c3.937,0,7.125-3.188,7.125-7.125v-23.75C745.108,482.094,741.919,478.904,737.983,478.904z M742.185,492.059h-9.555
		c1.394,1.554,2.247,3.597,2.247,5.846c0,4.845-3.929,8.77-8.77,8.77c-4.842,0-8.77-3.925-8.77-8.77
		c0-2.249,0.854-4.293,2.247-5.846h-9.555v-6.029c0-2.316,1.886-4.201,4.202-4.201h23.75c2.317,0,4.202,1.885,4.202,4.201V492.059z"
		/>
</g>
<g>
	<g id="XMLID_1_">
		<g>
			<path fill="#FFFEF6" d="M770.869,508.552c2.848,0.593,5.108-1.222,5.801-3.344c0.391-1.194,0.236-2.63,0.263-4.392
				c0.743,0,1.486,0,2.229,0c0.432,4.199-0.619,6.915-2.819,8.588c-1.059,0.805-2.511,1.435-4.229,1.507
				c-3.331,0.141-5.953-2.047-6.947-4.522c-0.56-1.394-0.696-3.273-0.197-4.884c0.829-2.675,2.958-4.829,6.325-5.113
				c1.802-0.152,3.761-0.032,5.704-0.032c1.938,0,3.896,0,5.735,0c1.034,0,1.936,0.037,2.721-0.165
				c2.022-0.521,3.72-2.212,3.77-4.785c0.034-1.767-0.772-3.095-1.803-3.933c-1.116-0.908-2.656-1.417-4.425-0.983
				c-1.504,0.368-2.545,1.241-3.213,2.523c-0.681,1.31-0.645,2.947-0.589,5.112c-0.754,0-1.508,0-2.262,0
				c-0.199-3.141,0.141-5.305,1.343-7.014c1.136-1.613,3.014-2.893,5.442-3.049c3.028-0.193,5.072,1.282,6.357,3.016
				c0.663,0.895,1.177,1.953,1.345,3.344c0.162,1.348-0.068,2.789-0.59,3.934c-0.947,2.075-2.746,3.658-5.212,4.129
				c-1.341,0.258-2.98,0.132-4.555,0.132c-3.035,0-6.345-0.094-9.343,0c-1.492,0.047-2.507,0.666-3.277,1.409
				c-0.792,0.764-1.44,1.863-1.541,3.146C766.678,506.035,768.579,508.074,770.869,508.552z"/>
		</g>
		<g>
		</g>
	</g>
</g>
<g>
	<g>
		<path fill="#FFFFFF" d="M600.036,356.871c0,6.501-5.335,11.775-11.918,11.775H16.167c-6.578,0-11.916-5.274-11.916-11.775V16.025
			c0-6.502,5.337-11.773,11.916-11.773h571.951c6.583,0,11.918,5.271,11.918,11.773V356.871z"/>
		<path fill="#1E1E1C" d="M588.118,372.895H16.167C7.251,372.895,0,365.708,0,356.871V16.025C0,7.189,7.251,0,16.167,0h571.951
			c8.914,0,16.17,7.189,16.17,16.025v340.845C604.288,365.708,597.032,372.895,588.118,372.895z M16.167,8.502
			c-4.227,0-7.664,3.374-7.664,7.523v340.845c0,4.148,3.437,7.522,7.664,7.522h571.951c4.226,0,7.663-3.374,7.663-7.522V16.025
			c0-4.149-3.438-7.523-7.663-7.523H16.167z"/>
	</g>
	<g>
		<rect x="83.506" y="46.965" fill="#010202" width="513.793" height="318.237"/>
	</g>
	<g>
		<rect x="7.794" y="46.965" fill="#CDCBCB" width="75.712" height="318.237"/>
	</g>
	<g>
		<rect x="4.557" y="38.667" fill="#1E1E1C" width="595.78" height="8.502"/>
	</g>
	<g>
		<circle fill="#1E1E1C" cx="25.918" cy="24.9" r="5.768"/>
	</g>
	<g>
		<path fill="#1E1E1C" d="M57.14,24.9c0,3.185-2.58,5.767-5.769,5.767c-3.182,0-5.764-2.582-5.764-5.767
			c0-3.185,2.583-5.766,5.764-5.766C54.56,19.134,57.14,21.715,57.14,24.9z"/>
	</g>
	<g>
		<circle fill="#1E1E1C" cx="76.828" cy="24.9" r="5.767"/>
	</g>
	<g>
		<rect x="141.607" y="224.488" fill="#A7D4F0" width="232.201" height="18.218"/>
	</g>
	<g>
		<rect x="20.15" y="67.823" fill="#FFFFFF" width="50.911" height="11.784"/>
	</g>
	<g>
		<rect x="20.15" y="84.511" fill="#FFFFFF" width="40.282" height="11.786"/>
	</g>
	<g>
		<rect x="20.15" y="101.202" fill="#FFFFFF" width="50.911" height="11.785"/>
	</g>
	<g>
		<rect x="20.15" y="117.89" fill="#FFFFFF" width="40.282" height="11.786"/>
	</g>
	<g>
		<rect x="20.15" y="134.579" fill="#FFFFFF" width="40.282" height="11.786"/>
	</g>
	<g>
		<rect x="141.607" y="67.97" fill="#CDCBCB" width="87.451" height="18.221"/>
	</g>
	<g>
		<rect x="141.607" y="99.273" fill="#ED7085" width="37.922" height="18.22"/>
	</g>
	<g>
		<rect x="141.607" y="318.397" fill="#ED7085" width="39.679" height="18.219"/>
	</g>
	<g>
		<rect x="193.43" y="318.397" fill="#A2D3B9" width="39.678" height="18.219"/>
	</g>
	<g>
		<rect x="245.254" y="318.397" fill="#A2D3B9" width="39.678" height="18.219"/>
	</g>
	<g>
		<rect x="296.172" y="318.397" fill="#ED7085" width="77.636" height="18.219"/>
	</g>
	<g>
		<rect x="141.607" y="287.095" fill="#CDCBCB" width="87.451" height="18.221"/>
	</g>
	<g>
		<rect x="241.208" y="287.095" fill="#CDCBCB" width="87.451" height="18.221"/>
	</g>
	<g>
		<rect x="141.607" y="193.184" fill="#A7D4F0" width="232.201" height="18.218"/>
	</g>
	<g>
		<rect x="385.954" y="193.184" fill="#A2D3B9" width="76.117" height="18.218"/>
	</g>
	<g>
		<rect x="474.22" y="193.184" fill="#ED7085" width="42.912" height="18.218"/>
	</g>
	<g>
		<rect x="385.954" y="224.488" fill="#A2D3B9" width="76.117" height="18.218"/>
	</g>
	<g>
		<rect x="474.22" y="224.488" fill="#ED7085" width="42.912" height="18.218"/>
	</g>
	<g>
		<rect x="141.607" y="255.792" fill="#A7D4F0" width="125.312" height="18.219"/>
	</g>
	<g>
		<rect x="279.066" y="255.792" fill="#A2D3B9" width="183.005" height="18.219"/>
	</g>
	<g>
		<rect x="474.22" y="255.792" fill="#ED7085" width="12.146" height="18.219"/>
	</g>
	<g>
		<rect x="498.106" y="255.792" fill="#ED7085" width="12.146" height="18.219"/>
	</g>
	<g>
		<rect x="523.21" y="255.792" fill="#ED7085" width="12.145" height="18.219"/>
	</g>
	<g>
		<rect x="141.607" y="161.881" fill="#CDCBCB" width="87.451" height="18.219"/>
	</g>
	<g>
		<rect x="141.607" y="130.577" fill="#CDCBCB" width="87.451" height="18.219"/>
	</g>
	<g>
		<rect x="191.139" y="99.634" fill="#ED7085" width="37.92" height="18.219"/>
	</g>
	<g>
		<rect x="241.208" y="99.634" fill="#A7D4F0" width="132.6" height="18.219"/>
	</g>
	<g>
		<path fill="#1E1E1C" d="M588.419,372.895H16.475c-8.917,0-16.171-7.187-16.171-16.024V16.025C0.304,7.189,7.558,0,16.475,0
			h571.944c8.918,0,16.169,7.189,16.169,16.025v340.845C604.588,365.708,597.337,372.895,588.419,372.895z M16.475,8.502
			c-4.231,0-7.669,3.374-7.669,7.523v340.845c0,4.148,3.438,7.522,7.669,7.522h571.944c4.229,0,7.665-3.374,7.665-7.522V16.025
			c0-4.149-3.436-7.523-7.665-7.523H16.475z"/>
	</g>
</g>
<g>
	<g>
		<defs>
			<path id="SVGID_1_" d="M953.701,366.856c0,1.02-0.831,1.847-1.856,1.847h-89.15c-1.024,0-1.857-0.827-1.857-1.847V206.37
				c0-1.02,0.833-1.846,1.857-1.846h89.15c1.025,0,1.856,0.826,1.856,1.846V366.856z"/>
		</defs>
		<clipPath id="SVGID_2_">
			<use xlink:href="#SVGID_1_"  overflow="visible"/>
		</clipPath>
		<g clip-path="url(#SVGID_2_)">
			<rect x="860.836" y="204.523" fill="#1E1E1C" width="92.795" height="164.712"/>
		</g>
		<g clip-path="url(#SVGID_2_)">
			<rect x="860.836" y="203.924" fill="#CDCBCB" width="92.793" height="24.321"/>
		</g>
	</g>
	<g>
		<defs>
			<path id="SVGID_3_" d="M852.75,365.413c0,1.818-1.482,3.29-3.31,3.29H690.635c-1.826,0-3.308-1.472-3.308-3.29v-47.009
				c0-1.816,1.481-3.289,3.308-3.289H849.44c1.827,0,3.31,1.473,3.31,3.289V365.413z"/>
		</defs>
		<clipPath id="SVGID_4_">
			<use xlink:href="#SVGID_3_"  overflow="visible"/>
		</clipPath>
		<g clip-path="url(#SVGID_4_)">
			<rect x="687.547" y="315.115" fill="#A2D3B9" width="164.98" height="54.121"/>
		</g>
	</g>
	<g>
		<defs>
			<path id="SVGID_5_" d="M852.528,303.044c0,1.817-1.48,3.29-3.308,3.29H690.417c-1.828,0-3.309-1.473-3.309-3.29v-95.231
				c0-1.817,1.48-3.29,3.309-3.29H849.22c1.827,0,3.308,1.472,3.308,3.29V303.044z"/>
		</defs>
		<clipPath id="SVGID_6_">
			<use xlink:href="#SVGID_5_"  overflow="visible"/>
		</clipPath>
		<g clip-path="url(#SVGID_6_)">
			<rect x="687.108" y="203.924" fill="#1E1E1C" width="165.42" height="102.411"/>
		</g>
	</g>
	<g>
		<circle fill="#FFFFFF" cx="880.158" cy="348.71" r="10.753"/>
	</g>
	<g>
		<rect x="869.238" y="242.903" fill="#A7D4F0" width="76.751" height="63.431"/>
	</g>
	<g>
		<rect x="894.619" y="248.054" fill="#7EB9E6" width="25.23" height="25.231"/>
	</g>
	<g>
		<rect x="874.896" y="275.773" fill="#7EB9E6" width="64.521" height="4.03"/>
	</g>
	<g>
		<rect x="887.156" y="282.759" fill="#7EB9E6" width="39.467" height="4.029"/>
	</g>
	<g>
		<rect x="881.839" y="291.586" fill="#BBDFF7" width="50.481" height="10.662"/>
	</g>
	<g>
		<path fill="#FFFFFF" d="M945.799,319.126c0,2.943-2.387,5.33-5.332,5.33h-66.09c-2.945,0-5.332-2.387-5.332-5.33l0,0
			c0-2.944,2.387-5.331,5.332-5.331h66.09C943.413,313.795,945.799,316.182,945.799,319.126L945.799,319.126z"/>
	</g>
	<g>
		<path fill="#ED7085" d="M880.102,216.398c0,0.842-0.684,1.525-1.526,1.525h-9.152c-0.841,0-1.523-0.683-1.523-1.525l0,0
			c0-0.843,0.683-1.525,1.523-1.525h9.152C879.418,214.873,880.102,215.555,880.102,216.398L880.102,216.398z"/>
	</g>
	<g>
		<path fill="#ED7085" d="M880.102,220.883c0,0.843-0.684,1.526-1.526,1.526h-9.152c-0.841,0-1.523-0.683-1.523-1.526l0,0
			c0-0.843,0.683-1.525,1.523-1.525h9.152C879.418,219.358,880.102,220.041,880.102,220.883L880.102,220.883z"/>
	</g>
	<g>
		<path fill="#ED7085" d="M880.102,211.913c0,0.842-0.684,1.525-1.526,1.525h-9.152c-0.841,0-1.523-0.683-1.523-1.525l0,0
			c0-0.843,0.683-1.525,1.523-1.525h9.152C879.418,210.387,880.102,211.07,880.102,211.913L880.102,211.913z"/>
	</g>
	<g>
		<path fill="#ED7085" d="M888.134,355.907c-0.557-0.247-1.183-0.498-1.868-0.747c-2.83-1.032-3.734-1.901-3.734-3.764
			c0-1.118,0.864-0.752,1.245-2.8c0.155-0.85,0.919-0.013,1.065-1.952c0-0.774-0.416-0.966-0.416-0.966s0.211-1.144,0.294-2.023
			c0.103-1.097-0.633-3.931-4.56-3.931c-3.928,0-4.665,2.833-4.562,3.931c0.083,0.879,0.294,2.023,0.294,2.023
			s-0.417,0.192-0.417,0.966c0.146,1.939,0.909,1.103,1.067,1.952c0.379,2.048,1.243,1.682,1.243,2.8
			c0,1.863-0.903,2.732-3.733,3.764c-0.685,0.25-1.312,0.5-1.869,0.747c1.969,2.179,4.808,3.557,7.977,3.557
			C883.327,359.464,886.166,358.086,888.134,355.907z"/>
	</g>
	<g>
		<rect x="894.619" y="337.956" fill="#A2D3B9" width="51.181" height="21.508"/>
	</g>
	<g>
		<path fill="#ED7085" d="M940.966,342.056c0,0.937-0.759,1.697-1.696,1.697h-7.038c-0.938,0-1.698-0.76-1.698-1.697l0,0
			c0-0.938,0.76-1.697,1.698-1.697h7.038C940.208,340.359,940.966,341.118,940.966,342.056L940.966,342.056z"/>
	</g>
	<g>
		<path fill="#ED7085" d="M926.281,211.489l-2.965-1.376c-0.055-0.027-0.134-0.027-0.212-0.027c-0.08,0-0.158,0-0.213,0.027
			l-2.78,1.296l-2.779-1.296c-0.052-0.027-0.132-0.027-0.214-0.027c-0.076,0-0.157,0-0.209,0.027l-2.992,1.376
			c-0.186,0.08-0.292,0.292-0.292,0.477v9.001c0,0.265,0.213,0.503,0.505,0.503c0.079,0,0.131-0.026,0.211-0.052l2.777-1.271
			l2.783,1.271c0.052,0.026,0.132,0.052,0.21,0.052c0.081,0,0.159-0.026,0.213-0.052l2.78-1.271l2.753,1.271
			c0.08,0.026,0.132,0.052,0.213,0.052c0.29,0,0.503-0.238,0.503-0.503v-9.001C926.573,211.781,926.466,211.569,926.281,211.489z
			 M916.617,219.273l-1.984,0.9v-7.89l1.984-0.926V219.273z M919.609,220.174l-1.986-0.9v-7.916l1.986,0.926V220.174z
			 M922.599,219.273l-1.984,0.9v-7.89l1.984-0.926V219.273z M925.566,220.174l-1.959-0.9v-7.916l1.959,0.926V220.174z"/>
	</g>
	<g id="photo_1_">
		<g>
			<path fill="#ED7085" d="M901.026,209.958h-8.129c-0.814,0-1.476,0.662-1.476,1.479v8.866c0,0.815,0.661,1.478,1.476,1.478h8.129
				c0.817,0,1.478-0.662,1.478-1.478v-8.866C902.503,210.62,901.843,209.958,901.026,209.958z M901.765,220.302
				c0,0.407-0.332,0.738-0.739,0.738h-8.129c-0.406,0-0.737-0.332-0.737-0.738v-8.866c0-0.408,0.331-0.739,0.737-0.739h8.129
				c0.407,0,0.739,0.331,0.739,0.739V220.302z"/>
		</g>
		<g>
			<path fill="#ED7085" d="M900.655,211.436h-7.387c-0.205,0-0.371,0.164-0.371,0.369v6.65c0,0.205,0.166,0.369,0.371,0.369h7.387
				c0.206,0,0.371-0.165,0.371-0.369v-6.65C901.026,211.6,900.861,211.436,900.655,211.436z M900.655,211.805v5.124l-1.198-1.305
				c-0.072-0.08-0.171-0.125-0.278-0.125c-0.105,0-0.207,0.045-0.276,0.125l-0.962,1.091l-2.919-3.307
				c-0.068-0.081-0.169-0.125-0.275-0.125c-0.107,0-0.208,0.045-0.277,0.125l-1.2,1.384v-2.988H900.655z M893.268,215.351
				l1.478-1.699l2.98,3.377l0.214,0.243l1.02,1.182h-5.691V215.351z M899.453,218.455l-1.266-1.461l0.991-1.125l1.477,1.618v0.968
				H899.453z"/>
		</g>
		<g>
			<path fill="#ED7085" d="M898.44,214.761c0.611,0,1.107-0.497,1.107-1.108c0-0.613-0.496-1.109-1.107-1.109
				c-0.614,0-1.109,0.496-1.109,1.109C897.331,214.264,897.826,214.761,898.44,214.761z M898.44,212.913
				c0.406,0,0.738,0.332,0.738,0.74c0,0.407-0.332,0.738-0.738,0.738c-0.408,0-0.739-0.331-0.739-0.738
				C897.701,213.245,898.032,212.913,898.44,212.913z"/>
		</g>
	</g>
	<g>
		<path fill="#ED7085" d="M948.966,215.851c0,0.577-0.468,1.044-1.044,1.044h-3.877v3.878c0,0.577-0.467,1.045-1.046,1.044
			c-0.288,0-0.548-0.117-0.736-0.306c-0.191-0.189-0.307-0.449-0.307-0.738v-3.879h-3.88c-0.288,0-0.55-0.117-0.738-0.306
			c-0.188-0.189-0.305-0.45-0.305-0.738c0-0.577,0.467-1.044,1.045-1.044h3.878v-3.879c0-0.577,0.467-1.044,1.045-1.044
			c0.577,0,1.044,0.467,1.044,1.044v3.879h3.878C948.5,214.807,948.966,215.274,948.966,215.851z"/>
	</g>
	<g>
		<path fill="#1E1E1C" d="M940.576,321.309l-1.253-1.253c0.218-0.354,0.351-0.766,0.351-1.212c0-1.28-1.038-2.317-2.317-2.317
			c-1.281,0-2.318,1.038-2.318,2.317c0,1.28,1.037,2.318,2.318,2.318c0.445,0,0.856-0.132,1.211-0.35l1.253,1.253
			c0.208,0.209,0.547,0.209,0.756,0C940.785,321.856,940.785,321.518,940.576,321.309z M937.356,320.449
			c-0.888,0-1.605-0.718-1.605-1.605c0-0.886,0.718-1.604,1.605-1.604c0.886,0,1.604,0.718,1.604,1.604
			C938.96,319.73,938.242,320.449,937.356,320.449z"/>
	</g>
	<g>
		<circle fill="#FFFFFF" cx="769.73" cy="319.304" r="9.501"/>
		<path fill="#FFFFFF" d="M769.731,330.672c-6.269,0-11.368-5.1-11.368-11.368c0-6.268,5.1-11.366,11.368-11.366
			c6.266,0,11.366,5.099,11.366,11.366C781.097,325.572,775.997,330.672,769.731,330.672z M769.731,311.669
			c-4.211,0-7.635,3.426-7.635,7.635c0,4.211,3.424,7.637,7.635,7.637c4.209,0,7.634-3.426,7.634-7.637
			C777.365,315.095,773.94,311.669,769.731,311.669z"/>
	</g>
	<g>
		<path fill="#ED7085" d="M776.776,325.664c-0.493-0.218-1.047-0.44-1.651-0.661c-2.5-0.911-3.297-1.679-3.297-3.325
			c0-0.987,0.762-0.665,1.098-2.474c0.138-0.751,0.812-0.012,0.94-1.725c0-0.683-0.366-0.853-0.366-0.853s0.188-1.01,0.258-1.788
			c0.092-0.969-0.558-3.472-4.026-3.472c-3.472,0-4.12,2.503-4.03,3.472c0.073,0.778,0.26,1.788,0.26,1.788s-0.367,0.17-0.367,0.853
			c0.13,1.713,0.804,0.974,0.941,1.725c0.334,1.809,1.099,1.486,1.099,2.474c0,1.646-0.798,2.415-3.298,3.325
			c-0.605,0.221-1.158,0.443-1.652,0.661c1.74,1.925,4.248,3.142,7.048,3.142C772.53,328.806,775.036,327.589,776.776,325.664z"/>
	</g>
	<g>
		<rect x="692.949" y="209.606" fill="#7EB9E6" width="25.231" height="25.231"/>
	</g>
	<g>
		<path fill="#ED7085" d="M750.587,230.218c0,2.347-1.901,4.25-4.248,4.25h-17.626c-2.347,0-4.249-1.902-4.249-4.25l0,0
			c0-2.347,1.902-4.25,4.249-4.25h17.626C748.686,225.969,750.587,227.871,750.587,230.218L750.587,230.218z"/>
	</g>
	<g>
		<path fill="#ED7085" d="M782,230.218c0,2.347-1.902,4.25-4.25,4.25h-17.623c-2.347,0-4.251-1.902-4.251-4.25l0,0
			c0-2.347,1.904-4.25,4.251-4.25h17.623C780.097,225.969,782,227.871,782,230.218L782,230.218z"/>
	</g>
	<g>
		<path fill="#ED7085" d="M813.413,230.218c0,2.347-1.901,4.25-4.25,4.25h-17.625c-2.348,0-4.248-1.902-4.248-4.25l0,0
			c0-2.347,1.9-4.25,4.248-4.25h17.625C811.511,225.969,813.413,227.871,813.413,230.218L813.413,230.218z"/>
	</g>
	<g>
		<path fill="#ED7085" d="M844.825,230.218c0,2.347-1.901,4.25-4.248,4.25H822.95c-2.346,0-4.249-1.902-4.249-4.25l0,0
			c0-2.347,1.903-4.25,4.249-4.25h17.627C842.923,225.969,844.825,227.871,844.825,230.218L844.825,230.218z"/>
	</g>
	<g>
		<path fill="#FFFFFF" d="M845.159,215.473c0,2.944-2.388,5.331-5.331,5.331h-66.092c-2.943,0-5.331-2.387-5.331-5.331l0,0
			c0-2.944,2.388-5.33,5.331-5.33h66.092C842.771,210.143,845.159,212.529,845.159,215.473L845.159,215.473z"/>
	</g>
	<g>
		<path fill="#1E1E1C" d="M838.87,217.656l-1.255-1.253c0.22-0.354,0.351-0.765,0.351-1.211c0-1.28-1.036-2.318-2.317-2.318
			c-1.28,0-2.317,1.038-2.317,2.318c0,1.279,1.037,2.318,2.317,2.318c0.445,0,0.858-0.132,1.212-0.351l1.253,1.253
			c0.209,0.208,0.548,0.208,0.757,0C839.078,218.204,839.078,217.865,838.87,217.656z M835.648,216.796
			c-0.886,0-1.604-0.718-1.604-1.604s0.719-1.604,1.604-1.604s1.604,0.718,1.604,1.604S836.534,216.796,835.648,216.796z"/>
	</g>
	<g>
		<rect x="692.949" y="242.903" fill="#A7D4F0" width="150.342" height="57.568"/>
	</g>
	<g>
		<rect x="698.991" y="247.135" fill="#7EB9E6" width="36.807" height="36.807"/>
	</g>
	<g>
		<rect x="750.257" y="248.2" fill="#7EB9E6" width="81.506" height="4.031"/>
	</g>
	<g>
		<rect x="750.257" y="255.457" fill="#7EB9E6" width="81.506" height="4.03"/>
	</g>
	<g>
		<rect x="750.257" y="262.919" fill="#7EB9E6" width="60.871" height="4.03"/>
	</g>
	<g>
		<rect x="750.257" y="284.774" fill="#BBDFF7" width="39.123" height="10.661"/>
	</g>
	<g>
		<rect x="792.588" y="284.601" fill="#BBDFF7" width="39.121" height="10.661"/>
	</g>
	<g>
		<rect x="698.991" y="323.234" fill="#75C095" width="23.237" height="7.874"/>
	</g>
	<g>
		<path fill="#ED7085" d="M835.135,327.188c0,1.856-1.503,3.36-3.359,3.36h-13.938c-1.855,0-3.358-1.504-3.358-3.36l0,0
			c0-1.856,1.503-3.361,3.358-3.361h13.938C833.632,323.827,835.135,325.332,835.135,327.188L835.135,327.188z"/>
	</g>
	<g>
		<rect x="699.543" y="335.981" fill="#CCE4D5" width="136.095" height="4.948"/>
	</g>
	<g>
		<rect x="699.543" y="344.363" fill="#CCE4D5" width="136.095" height="4.949"/>
	</g>
	<g>
		<rect x="710.61" y="352.746" fill="#CCE4D5" width="113.962" height="4.948"/>
	</g>
</g>
</svg>
