<?xml version="1.0" encoding="utf-8"?>
<!-- Generator: Adobe Illustrator 15.0.0, SVG Export Plug-In . SVG Version: 6.00 Build 0)  -->
<!DOCTYPE svg PUBLIC "-//W3C//DTD SVG 1.1//EN" "http://www.w3.org/Graphics/SVG/1.1/DTD/svg11.dtd">
<svg version="1.1" id="Layer_1" xmlns="http://www.w3.org/2000/svg" xmlns:xlink="http://www.w3.org/1999/xlink" x="0px" y="0px"
	 viewBox="0 0 268.767 167.908" enable-background="new 0 0 268.767 167.908"
	 xml:space="preserve">
<g>
	<path fill="#010202" d="M-80.579,295.955h-62.5c-10.357,0-18.75,8.393-18.75,18.75v62.5c0,10.359,8.393,18.75,18.75,18.75h62.5
		c10.356,0,18.75-8.391,18.75-18.75v-62.5C-61.829,304.348-70.222,295.955-80.579,295.955z M-111.829,383.373
		c-20.631,0-37.418-16.793-37.418-37.418c0-20.621,16.787-37.418,37.418-37.418c20.631,0,37.413,16.789,37.413,37.418
		C-74.416,366.586-91.198,383.373-111.829,383.373z"/>
	<path fill="#010202" d="M-113.566,335.562c-5.299-9.416-11.007-17.332-11.85-18.488c-8.946,4.22-15.63,12.464-17.699,22.381
		C-141.686,339.473-128.518,339.529-113.566,335.562z"/>
	<path fill="#010202" d="M-109.598,346.278l1.26-0.37c-0.802-1.819-1.679-3.639-2.591-5.428
		c-15.964,4.775-31.456,4.574-32.854,4.544l-0.016,0.974c0.008,8.211,3.112,15.705,8.221,21.375
		C-134.855,366.133-126.086,351.609-109.598,346.278z"/>
	<path fill="#010202" d="M-104.944,338.395c0.743,1.525,1.457,3.076,2.125,4.631l0.684,1.649c10.637-1.337,21.202,0.808,22.251,1.03
		c-0.06-7.543-2.75-14.477-7.201-19.914C-87.756,326.701-93.115,333.568-104.944,338.395z"/>
	<path fill="#010202" d="M-106.373,351.264c-18.028,6.275-24.499,18.789-25.075,19.961c5.417,4.223,12.23,6.746,19.619,6.746
		c4.431,0.004,8.655-0.9,12.487-2.539c-0.476-2.801-2.331-12.582-6.818-24.24L-106.373,351.264z"/>
	<path fill="#010202" d="M-90.637,322.096c-5.653-5.012-13.068-8.059-21.191-8.059c-2.575,0-5.089,0.308-7.488,0.889
		c0.881,1.188,6.689,9.092,11.924,18.709C-96.021,329.384-91.218,322.913-90.637,322.096z"/>
	<path fill="#010202" d="M-100.182,349.717c4.185,11.488,5.883,20.836,6.212,22.789c7.159-4.846,12.269-12.529,13.689-21.438
		C-81.36,350.73-90.162,348.104-100.182,349.717z"/>
</g>
<path fill="#010202" d="M-83.245,183.066h-62.5c-10.357,0-18.75,8.393-18.75,18.75v62.5c0,10.36,8.393,18.75,18.75,18.75h62.5
	c10.356,0,18.75-8.391,18.75-18.75v-62.5C-64.495,191.459-72.889,183.066-83.245,183.066z M-89.618,221.843l0.035,1.591
	c0,16.272-12.381,35.022-35.027,35.022c-6.949,0-13.415-2.035-18.868-5.53c0.966,0.112,1.943,0.18,2.94,0.18
	c5.767,0,11.076-1.974,15.286-5.269c-5.386-0.098-9.93-3.662-11.498-8.553c0.755,0.145,1.516,0.217,2.318,0.217
	c1.126,0,2.213-0.149,3.244-0.428c-5.628-1.135-9.874-6.105-9.874-12.068v-0.159c1.66,0.925,3.554,1.478,5.577,1.547
	c-3.305-2.21-5.479-5.978-5.479-10.249c0-2.251,0.607-4.364,1.666-6.183c6.065,7.448,15.142,12.351,25.37,12.862
	c-0.211-0.902-0.313-1.848-0.313-2.809c0-6.79,5.51-12.305,12.31-12.305c3.542,0,6.738,1.496,8.989,3.886
	c2.802-0.555,5.438-1.581,7.818-2.983c-0.92,2.875-2.868,5.286-5.412,6.812c2.482-0.293,4.861-0.966,7.066-1.938
	C-85.121,217.95-87.213,220.114-89.618,221.843z"/>
<path fill="#010202" d="M241.38,228.637h-23.75c-3.938,0-7.125,3.189-7.125,7.125v23.75c0,3.936,3.187,7.125,7.125,7.125h23.75
	c3.934,0,7.125-3.189,7.125-7.125v-23.75C248.505,231.826,245.313,228.637,241.38,228.637z M224.755,256.84h-4.75v-16.625h4.75
	V256.84z M222.526,239.195c-1.232,0-2.225-0.996-2.225-2.227s0.997-2.229,2.225-2.229c1.23,0.002,2.229,1.001,2.229,2.229
	C224.755,238.199,223.757,239.195,222.526,239.195z M241.38,256.84h-4.75v-10.279c0-1.203-0.344-2.047-1.823-2.047
	c-2.454,0-2.927,2.047-2.927,2.047v10.279h-4.75v-16.625h4.75v1.59c0.677-0.521,2.375-1.588,4.75-1.588
	c1.539,0,4.75,0.922,4.75,6.489V256.84z"/>
<g>
	<rect x="134.384" y="323.836" fill="none" width="99.998" height="99.999"/>
	<path fill="#010202" d="M211.306,350.76c-2.118,0-3.845-1.729-3.845-3.847v-7.691c0-2.12,1.727-3.847,3.845-3.847h7.691
		c2.12,0,3.848,1.727,3.848,3.847v7.691c0,2.118-1.728,3.847-3.848,3.847H211.306z"/>
	<path fill="#010202" d="M184.384,359.177c-2.794,0-5.371,0.817-7.587,2.164c0.691-0.216,1.411-0.357,2.167-0.357
		c4.109,0,7.432,3.328,7.432,7.438c0,4.102-3.322,7.438-7.432,7.438c-4.107,0-7.433-3.333-7.433-7.438
		c0-0.764,0.149-1.483,0.36-2.172c-1.353,2.221-2.172,4.796-2.172,7.587c0,8.104,6.559,14.663,14.666,14.663
		c8.095,0,14.669-6.559,14.669-14.663C199.055,365.73,192.48,359.177,184.384,359.177z"/>
	<g>
		<path fill="#010202" d="M184.384,350.76c12.738,0,23.077,10.332,23.077,23.076c0,12.749-10.339,23.077-23.077,23.077
			c-12.742,0-23.078-10.328-23.078-23.077C161.306,361.092,171.642,350.76,184.384,350.76 M184.384,343.068
			c-16.967,0-30.77,13.801-30.77,30.768c0,16.966,13.803,30.771,30.77,30.771c16.966,0,30.769-13.806,30.769-30.771
			C215.152,356.869,201.35,343.068,184.384,343.068L184.384,343.068z"/>
	</g>
	<path fill="#010202" d="M215.633,323.836h-62.499c-10.359,0-18.75,8.393-18.75,18.75v62.499c0,10.362,8.391,18.75,18.75,18.75
		h62.499c10.359,0,18.749-8.388,18.749-18.75v-62.499C234.382,332.229,225.992,323.836,215.633,323.836z M226.693,358.452h-25.146
		c3.667,4.089,5.913,9.465,5.913,15.384c0,12.749-10.339,23.077-23.077,23.077c-12.742,0-23.078-10.328-23.078-23.077
		c0-5.919,2.246-11.298,5.913-15.384h-25.144v-15.866c0-6.096,4.963-11.057,11.059-11.057h62.499
		c6.099,0,11.061,4.961,11.061,11.057V358.452z"/>
</g>
<g>
	<g>
		<path fill="#010202" d="M55.417,345.954H-7.741c-10.174,0-18.421,8.246-18.421,18.421v63.158c0,10.174,8.247,18.421,18.421,18.421
			h63.158c10.174,0,18.421-8.247,18.421-18.421v-63.158C73.838,354.2,65.591,345.954,55.417,345.954z M56,386.373
			c-2.492,5.463-7.227,9.629-13.716,10.866c-3.528,0.678-7.843,0.347-11.985,0.347c-7.986,0-16.696-0.247-24.586,0
			c-3.927,0.124-6.598,1.753-8.625,3.708c-2.084,2.01-3.791,4.904-4.057,8.281c-0.587,7.524,4.414,12.89,10.439,14.146
			c7.495,1.561,13.444-3.215,15.266-8.799c1.028-3.143,0.622-6.92,0.691-11.557h5.864c1.137,11.05-1.63,18.197-7.419,22.6
			c-2.786,2.117-6.608,3.774-11.127,3.965c-8.767,0.37-15.666-5.387-18.283-11.901c-1.472-3.667-1.832-8.614-0.519-12.853
			c2.181-7.037,7.785-12.706,16.646-13.455c4.74-0.401,9.897-0.084,15.012-0.084h15.092c2.722,0,5.094,0.097,7.159-0.436
			c5.322-1.368,9.789-5.821,9.92-12.591c0.09-4.65-2.032-8.146-4.744-10.35c-2.938-2.392-6.99-3.729-11.644-2.59
			c-3.958,0.971-6.697,3.266-8.455,6.642c-1.792,3.447-1.697,7.756-1.55,13.454h-5.952c-0.524-8.264,0.371-13.96,3.536-18.458
			c2.987-4.245,7.929-7.61,14.32-8.023c7.97-0.509,13.349,3.375,16.73,7.937c1.745,2.354,3.097,5.14,3.539,8.8
			C57.979,379.568,57.372,383.362,56,386.373z"/>
	</g>
</g>
<path fill="#CDCCCC" d="M453.505,273.732h-24c-3.866,0-7,3.134-7,7v24c0,3.866,3.134,7,7,7h24c3.866,0,7-3.134,7-7v-24
	C460.505,276.866,457.371,273.732,453.505,273.732z"/>
<g>
	<path fill="#CDCCCC" d="M295.88,273.637h-23.75c-3.936,0-7.125,3.189-7.125,7.125v23.75c0,3.937,3.189,7.125,7.125,7.125h23.75
		c3.936,0,7.125-3.188,7.125-7.125v-23.75C303.005,276.826,299.815,273.637,295.88,273.637z M284.005,306.855
		c-7.84,0-14.219-6.381-14.219-14.219c0-7.836,6.379-14.219,14.219-14.219s14.217,6.38,14.217,14.219
		C298.222,300.477,291.845,306.855,284.005,306.855z"/>
	<path fill="#CDCCCC" d="M283.345,288.688c-2.014-3.578-4.183-6.586-4.503-7.025c-3.399,1.604-5.939,4.736-6.726,8.505
		C272.659,290.174,277.663,290.195,283.345,288.688z"/>
	<path fill="#CDCCCC" d="M284.853,292.76l0.479-0.141c-0.305-0.691-0.638-1.383-0.984-2.062c-6.066,1.814-11.953,1.738-12.484,1.727
		l-0.006,0.37c0.003,3.12,1.183,5.968,3.124,8.122C275.255,300.305,278.587,294.785,284.853,292.76z"/>
	<path fill="#CDCCCC" d="M286.621,289.764c0.282,0.58,0.554,1.169,0.808,1.76l0.26,0.627c4.042-0.508,8.057,0.307,8.455,0.392
		c-0.022-2.866-1.045-5.501-2.736-7.567C293.152,285.32,291.116,287.93,286.621,289.764z"/>
	<path fill="#CDCCCC" d="M286.078,294.654c-6.851,2.385-9.31,7.14-9.528,7.585c2.059,1.604,4.647,2.563,7.455,2.563
		c1.684,0.002,3.289-0.342,4.745-0.965c-0.181-1.064-0.886-4.781-2.591-9.211L286.078,294.654z"/>
	<path fill="#CDCCCC" d="M292.058,283.57c-2.148-1.904-4.966-3.062-8.053-3.062c-0.979,0-1.934,0.117-2.846,0.338
		c0.335,0.451,2.542,3.455,4.531,7.109C290.012,286.34,291.837,283.881,292.058,283.57z"/>
	<path fill="#CDCCCC" d="M288.431,294.066c1.59,4.365,2.235,7.918,2.36,8.66c2.721-1.842,4.662-4.762,5.202-8.146
		C295.583,294.451,292.238,293.453,288.431,294.066z"/>
</g>
<path fill="#CDCCCC" d="M243.38,273.637h-23.75c-3.936,0-7.125,3.189-7.125,7.125v23.75c0,3.937,3.189,7.125,7.125,7.125h23.75
	c3.936,0,7.125-3.188,7.125-7.125v-23.75C250.505,276.826,247.315,273.637,243.38,273.637z M240.958,288.372l0.014,0.604
	c0,6.184-4.705,13.309-13.311,13.309c-2.641,0-5.098-0.773-7.17-2.102c0.367,0.043,0.738,0.068,1.117,0.068
	c2.191,0,4.209-0.75,5.809-2.002c-2.047-0.037-3.773-1.392-4.369-3.25c0.287,0.055,0.576,0.082,0.881,0.082
	c0.428,0,0.841-0.057,1.232-0.162c-2.139-0.432-3.752-2.32-3.752-4.586v-0.061c0.631,0.352,1.351,0.562,2.119,0.588
	c-1.256-0.84-2.082-2.271-2.082-3.895c0-0.855,0.23-1.658,0.633-2.35c2.305,2.83,5.754,4.693,9.641,4.888
	c-0.08-0.343-0.119-0.702-0.119-1.067c0-2.58,2.094-4.676,4.678-4.676c1.346,0,2.561,0.568,3.416,1.477
	c1.064-0.211,2.066-0.601,2.971-1.134c-0.35,1.093-1.09,2.009-2.057,2.589c0.943-0.111,1.848-0.367,2.686-0.736
	C242.667,286.893,241.872,287.715,240.958,288.372z"/>
<path fill="#CDCCCC" d="M348.38,273.637h-23.75c-3.938,0-7.125,3.189-7.125,7.125v23.75c0,3.936,3.187,7.125,7.125,7.125h23.75
	c3.934,0,7.125-3.189,7.125-7.125v-23.75C355.505,276.826,352.313,273.637,348.38,273.637z M331.755,301.84h-4.75v-16.625h4.75
	V301.84z M329.526,284.195c-1.232,0-2.225-0.996-2.225-2.227s0.997-2.229,2.225-2.229c1.23,0.002,2.229,1.001,2.229,2.229
	C331.755,283.199,330.757,284.195,329.526,284.195z M348.38,301.84h-4.75v-10.279c0-1.203-0.344-2.047-1.823-2.047
	c-2.454,0-2.927,2.047-2.927,2.047v10.279h-4.75v-16.625h4.75v1.59c0.677-0.521,2.375-1.588,4.75-1.588
	c1.539,0,4.75,0.922,4.75,6.489V301.84z"/>
<rect x="370.005" y="273.637" fill="none" width="38" height="38"/>
<g>
	<path fill="#CDCCCC" d="M399.235,283.868c-0.805,0-1.461-0.657-1.461-1.462v-2.923c0-0.806,0.656-1.462,1.461-1.462h2.923
		c0.806,0,1.462,0.656,1.462,1.462v2.923c0,0.805-0.656,1.462-1.462,1.462H399.235z"/>
	<path fill="#CDCCCC" d="M389.005,287.066c-1.062,0-2.041,0.311-2.883,0.822c0.263-0.082,0.536-0.136,0.823-0.136
		c1.562,0,2.824,1.265,2.824,2.826c0,1.559-1.263,2.826-2.824,2.826c-1.561,0-2.824-1.267-2.824-2.826
		c0-0.29,0.057-0.563,0.137-0.825c-0.514,0.844-0.825,1.822-0.825,2.883c0,3.08,2.492,5.572,5.573,5.572
		c3.076,0,5.574-2.492,5.574-5.572S392.082,287.066,389.005,287.066z"/>
	<g>
		<path fill="#CDCCCC" d="M389.005,283.868c4.841,0,8.77,3.926,8.77,8.769c0,4.845-3.929,8.77-8.77,8.77
			c-4.842,0-8.77-3.925-8.77-8.77C380.235,287.794,384.163,283.868,389.005,283.868 M389.005,280.945
			c-6.447,0-11.692,5.244-11.692,11.691s5.245,11.693,11.692,11.693s11.692-5.246,11.692-11.693S395.452,280.945,389.005,280.945
			L389.005,280.945z"/>
	</g>
	<path fill="#CDCCCC" d="M400.88,273.637h-23.75c-3.937,0-7.125,3.189-7.125,7.125v23.75c0,3.938,3.188,7.125,7.125,7.125h23.75
		c3.937,0,7.125-3.188,7.125-7.125v-23.75C408.005,276.826,404.816,273.637,400.88,273.637z M405.082,286.791h-9.555
		c1.394,1.554,2.247,3.597,2.247,5.846c0,4.845-3.929,8.77-8.77,8.77c-4.842,0-8.77-3.925-8.77-8.77
		c0-2.249,0.854-4.293,2.247-5.846h-9.555v-6.029c0-2.316,1.886-4.201,4.202-4.201h23.75c2.317,0,4.202,1.885,4.202,4.201V286.791z"
		/>
</g>
<g>
	<g id="XMLID_1_">
		<g>
			<path fill="#FFFEF6" d="M433.766,303.284c2.848,0.593,5.108-1.222,5.801-3.344c0.391-1.194,0.236-2.63,0.263-4.392
				c0.743,0,1.486,0,2.229,0c0.432,4.199-0.619,6.915-2.819,8.588c-1.059,0.805-2.511,1.435-4.229,1.507
				c-3.331,0.141-5.953-2.047-6.947-4.522c-0.56-1.394-0.696-3.273-0.197-4.884c0.829-2.675,2.958-4.829,6.325-5.113
				c1.802-0.152,3.761-0.032,5.704-0.032c1.938,0,3.896,0,5.735,0c1.034,0,1.936,0.037,2.721-0.165
				c2.022-0.521,3.72-2.212,3.77-4.785c0.034-1.767-0.772-3.095-1.803-3.933c-1.116-0.908-2.656-1.417-4.425-0.983
				c-1.504,0.368-2.545,1.241-3.213,2.523c-0.681,1.31-0.645,2.947-0.589,5.112c-0.754,0-1.508,0-2.262,0
				c-0.199-3.141,0.141-5.305,1.343-7.014c1.136-1.613,3.014-2.893,5.442-3.049c3.028-0.193,5.072,1.282,6.357,3.016
				c0.663,0.895,1.177,1.953,1.345,3.344c0.162,1.348-0.068,2.789-0.59,3.934c-0.947,2.075-2.746,3.658-5.212,4.129
				c-1.341,0.258-2.98,0.132-4.555,0.132c-3.035,0-6.345-0.094-9.343,0c-1.492,0.047-2.507,0.666-3.277,1.409
				c-0.792,0.764-1.44,1.863-1.541,3.146C429.575,300.768,431.476,302.807,433.766,303.284z"/>
		</g>
		<g>
		</g>
	</g>
</g>
<g>
	<g>
		<g>
			<path fill="#FFFFFF" d="M163.543,3.352C73.814,3.352,1.076,76.091,1.076,165.82h162.467V3.352z"/>
		</g>
	</g>
	<g>
		<g>
			<path fill="#A2D3B9" d="M206.128,0.249c0,34.595,28.045,62.639,62.639,62.639V0.249H206.128z"/>
		</g>
	</g>
	<g>
		<g>
			<path fill="#ED7085" d="M100.778,127.945c0-55.215-44.76-99.975-99.976-99.975v99.975H100.778z"/>
		</g>
	</g>
	<g>
		<g>
			<path fill="#A6D3EF" d="M166.087,101.076c34.595,0,62.64-28.045,62.64-62.64h-62.64V101.076z"/>
		</g>
	</g>
	<g>
		<rect x="163.533" y="1.894" fill="#1E1E1C" width="2.704" height="125.178"/>
	</g>
	<g>
		<rect x="165.967" y="100.998" fill="#1E1E1C" width="100.635" height="2.705"/>
	</g>
	<g>
		<rect x="203.301" y="102.48" fill="#1E1E1C" width="2.705" height="64.051"/>
	</g>
	<g>
		<rect x="164.941" y="126.104" fill="#1E1E1C" width="31.85" height="2.705"/>
	</g>
	<g>
		<rect x="187.1" y="102.926" fill="#1E1E1C" width="2.707" height="23.754"/>
	</g>
	<g>
		<rect x="188.994" y="116.564" fill="#1E1E1C" width="14.969" height="2.705"/>
	</g>
	<g>
		<path fill="#1E1E1C" d="M203.791,167.908c-22.517,0-40.836-18.318-40.836-40.836c0-14.359,11.68-26.039,26.039-26.039
			c9.298,0,16.862,7.564,16.862,16.861c0,6.162-5.013,11.176-11.175,11.176c-4.218,0-7.648-3.432-7.648-7.648
			c0-3.01,2.449-5.461,5.463-5.461c1.045,0,1.893,0.848,1.893,1.895c0,1.045-0.848,1.893-1.893,1.893
			c-0.926,0-1.676,0.752-1.676,1.674c0,2.129,1.731,3.861,3.861,3.861c4.074,0,7.389-3.314,7.389-7.389
			c0-7.209-5.867-13.074-13.076-13.074c-12.27,0-22.252,9.982-22.252,22.252c0,20.428,16.62,37.049,37.049,37.049
			c33.59,0,60.918-27.328,60.918-60.92c0-54.816-44.598-99.414-99.415-99.414C76.238,3.788,3.787,76.239,3.787,165.295
			c0,1.045-0.848,1.893-1.894,1.893S0,166.34,0,165.295c0-44.152,17.194-85.662,48.414-116.881C79.633,17.194,121.143,0,165.294,0
			c56.905,0,103.202,46.295,103.202,103.201C268.496,138.881,239.469,167.908,203.791,167.908z"/>
	</g>
</g>
</svg>
