<?xml version="1.0" encoding="utf-8"?>
<!-- Generator: Adobe Illustrator 15.0.0, SVG Export Plug-In . SVG Version: 6.00 Build 0)  -->
<!DOCTYPE svg PUBLIC "-//W3C//DTD SVG 1.1//EN" "http://www.w3.org/Graphics/SVG/1.1/DTD/svg11.dtd">
<svg version="1.1" id="Layer_1" xmlns="http://www.w3.org/2000/svg" xmlns:xlink="http://www.w3.org/1999/xlink" x="0px" y="0px"
	 width="100px" height="100px" viewBox="0 0 100 100" enable-background="new 0 0 100 100" xml:space="preserve">
<path fill="#010202" d="M368,8h-24c-3.866,0-7,3.134-7,7v24c0,3.866,3.134,7,7,7h24c3.866,0,7-3.134,7-7V15
	C375,11.134,371.866,8,368,8z"/>
<g>
	<path fill="#010202" d="M81.25,0h-62.5C8.393,0,0,8.393,0,18.75v62.5C0,91.609,8.393,100,18.75,100h62.5
		C91.606,100,100,91.609,100,81.25v-62.5C100,8.393,91.606,0,81.25,0z M50,87.418c-20.631,0-37.418-16.792-37.418-37.418
		c0-20.621,16.787-37.418,37.418-37.418c20.631,0,37.413,16.79,37.413,37.418C87.413,70.631,70.631,87.418,50,87.418z"/>
	<path fill="#010202" d="M48.263,39.607c-5.299-9.416-11.007-17.332-11.85-18.488c-8.946,4.22-15.63,12.464-17.699,22.381
		C20.143,43.519,33.311,43.575,48.263,39.607z"/>
	<path fill="#010202" d="M52.23,50.324l1.26-0.37c-0.802-1.819-1.679-3.639-2.591-5.428c-15.964,4.775-31.456,4.575-32.854,4.544
		l-0.016,0.974c0.008,8.21,3.112,15.705,8.221,21.375C26.974,70.179,35.742,55.654,52.23,50.324z"/>
	<path fill="#010202" d="M56.885,42.439c0.743,1.526,1.457,3.076,2.125,4.631l0.684,1.65c10.637-1.336,21.202,0.807,22.251,1.03
		c-0.06-7.542-2.75-14.476-7.201-19.914C74.072,30.746,68.714,37.613,56.885,42.439z"/>
	<path fill="#010202" d="M55.456,55.31c-18.028,6.275-24.499,18.788-25.075,19.96c5.417,4.223,12.23,6.746,19.619,6.746
		c4.431,0.005,8.655-0.899,12.487-2.539c-0.476-2.801-2.331-12.582-6.818-24.239L55.456,55.31z"/>
	<path fill="#010202" d="M71.191,26.141C65.538,21.13,58.123,18.082,50,18.082c-2.575,0-5.089,0.308-7.488,0.889
		c0.881,1.187,6.689,9.092,11.924,18.708C65.808,33.429,70.61,26.958,71.191,26.141z"/>
	<path fill="#010202" d="M61.646,53.762c4.185,11.488,5.883,20.837,6.212,22.79c7.159-4.847,12.269-12.53,13.689-21.438
		C80.469,54.775,71.667,52.148,61.646,53.762z"/>
</g>
<path fill="#010202" d="M-61.75-37.667h-62.5c-10.357,0-18.75,8.393-18.75,18.75v62.5c0,10.36,8.393,18.75,18.75,18.75h62.5
	c10.356,0,18.75-8.391,18.75-18.75v-62.5C-43-29.273-51.394-37.667-61.75-37.667z M-68.123,1.111l0.035,1.591
	c0,16.272-12.381,35.022-35.027,35.022c-6.949,0-13.415-2.035-18.868-5.53c0.966,0.112,1.943,0.18,2.94,0.18
	c5.767,0,11.076-1.974,15.286-5.269c-5.386-0.098-9.93-3.662-11.498-8.553c0.755,0.145,1.516,0.217,2.318,0.217
	c1.126,0,2.213-0.149,3.244-0.428c-5.628-1.135-9.874-6.105-9.874-12.068V6.114c1.66,0.925,3.554,1.478,5.577,1.547
	c-3.305-2.21-5.479-5.978-5.479-10.249c0-2.251,0.607-4.364,1.666-6.183c6.065,7.448,15.142,12.351,25.37,12.862
	c-0.211-0.902-0.313-1.848-0.313-2.809c0-6.79,5.51-12.305,12.31-12.305c3.542,0,6.738,1.496,8.989,3.886
	c2.802-0.555,5.438-1.581,7.818-2.983c-0.92,2.875-2.868,5.286-5.412,6.812c2.482-0.293,4.861-0.966,7.066-1.938
	C-63.626-2.783-65.718-0.619-68.123,1.111z"/>
<path fill="#010202" d="M262.875,7.904h-23.75c-3.938,0-7.125,3.189-7.125,7.125v23.75c0,3.936,3.187,7.125,7.125,7.125h23.75
	c3.934,0,7.125-3.189,7.125-7.125v-23.75C270,11.094,266.809,7.904,262.875,7.904z M246.25,36.107h-4.75V19.482h4.75V36.107z
	 M244.021,18.463c-1.232,0-2.225-0.996-2.225-2.227s0.997-2.229,2.225-2.229c1.23,0.002,2.229,1.001,2.229,2.229
	C246.25,17.467,245.252,18.463,244.021,18.463z M262.875,36.107h-4.75V25.828c0-1.203-0.344-2.047-1.823-2.047
	c-2.454,0-2.927,2.047-2.927,2.047v10.279h-4.75V19.482h4.75v1.59c0.677-0.521,2.375-1.588,4.75-1.588
	c1.539,0,4.75,0.922,4.75,6.489V36.107z"/>
<g>
	<rect x="284.5" y="7.904" fill="none" width="38" height="38"/>
	<path fill="#010202" d="M313.73,18.136c-0.805,0-1.461-0.657-1.461-1.462v-2.923c0-0.806,0.656-1.462,1.461-1.462h2.923
		c0.806,0,1.462,0.656,1.462,1.462v2.923c0,0.805-0.656,1.462-1.462,1.462H313.73z"/>
	<path fill="#010202" d="M303.5,21.334c-1.062,0-2.041,0.311-2.883,0.822c0.263-0.082,0.536-0.136,0.823-0.136
		c1.562,0,2.824,1.265,2.824,2.826c0,1.559-1.263,2.826-2.824,2.826c-1.561,0-2.824-1.267-2.824-2.826
		c0-0.29,0.057-0.563,0.137-0.825c-0.514,0.844-0.825,1.822-0.825,2.883c0,3.08,2.492,5.572,5.573,5.572
		c3.076,0,5.574-2.492,5.574-5.572S306.577,21.334,303.5,21.334z"/>
	<g>
		<path fill="#010202" d="M303.5,18.136c4.841,0,8.77,3.926,8.77,8.769c0,4.845-3.929,8.77-8.77,8.77c-4.842,0-8.77-3.925-8.77-8.77
			C294.73,22.062,298.658,18.136,303.5,18.136 M303.5,15.213c-6.447,0-11.692,5.244-11.692,11.691s5.245,11.693,11.692,11.693
			s11.692-5.246,11.692-11.693S309.947,15.213,303.5,15.213L303.5,15.213z"/>
	</g>
	<path fill="#010202" d="M315.375,7.904h-23.75c-3.937,0-7.125,3.189-7.125,7.125v23.75c0,3.938,3.188,7.125,7.125,7.125h23.75
		c3.937,0,7.125-3.188,7.125-7.125v-23.75C322.5,11.094,319.312,7.904,315.375,7.904z M319.577,21.059h-9.555
		c1.394,1.554,2.247,3.597,2.247,5.846c0,4.845-3.929,8.77-8.77,8.77c-4.842,0-8.77-3.925-8.77-8.77
		c0-2.249,0.854-4.293,2.247-5.846h-9.555v-6.029c0-2.316,1.886-4.201,4.202-4.201h23.75c2.317,0,4.202,1.885,4.202,4.201V21.059z"
		/>
</g>
<g>
	<g id="XMLID_3_">
		<g>
			<path fill="#FFFEF6" d="M366.615,20.409c0.034-1.767-0.772-3.095-1.803-3.933c-1.116-0.908-2.656-1.417-4.425-0.983
				c-1.504,0.368-2.545,1.241-3.213,2.523c-0.681,1.31-0.645,2.947-0.589,5.112c-0.754,0-1.508,0-2.262,0
				c-0.199-3.141,0.141-5.305,1.343-7.014c1.136-1.613,3.014-2.893,5.442-3.049c3.028-0.193,5.072,1.282,6.357,3.016
				c0.663,0.895,1.177,1.953,1.345,3.344c0.162,1.348-0.068,2.789-0.59,3.934c-0.947,2.075-2.746,3.658-5.212,4.129
				c-1.341,0.258-2.98,0.132-4.555,0.132c-3.035,0-6.345-0.094-9.343,0c-1.492,0.047-2.507,0.666-3.277,1.409
				c-0.792,0.764-1.44,1.863-1.541,3.146c-0.224,2.859,1.677,4.898,3.967,5.376c2.848,0.593,5.108-1.222,5.801-3.344
				c0.391-1.194,0.236-2.63,0.263-4.392c0.743,0,1.486,0,2.229,0c0.432,4.199-0.619,6.915-2.819,8.588
				c-1.059,0.805-2.511,1.435-4.229,1.507c-3.331,0.141-5.953-2.047-6.947-4.522c-0.56-1.394-0.696-3.273-0.197-4.884
				c0.829-2.675,2.958-4.829,6.325-5.113c1.802-0.152,3.761-0.032,5.704-0.032c1.938,0,3.896,0,5.735,0
				c1.034,0,1.936,0.037,2.721-0.165C364.868,24.674,366.565,22.982,366.615,20.409z"/>
		</g>
		<g>
		</g>
	</g>
</g>
<path fill="#CDCCCC" d="M368,61h-24c-3.866,0-7,3.134-7,7v24c0,3.866,3.134,7,7,7h24c3.866,0,7-3.134,7-7V68
	C375,64.134,371.866,61,368,61z"/>
<g>
	<path fill="#CDCCCC" d="M210.375,60.904h-23.75c-3.936,0-7.125,3.189-7.125,7.125v23.75c0,3.937,3.189,7.125,7.125,7.125h23.75
		c3.936,0,7.125-3.188,7.125-7.125v-23.75C217.5,64.094,214.311,60.904,210.375,60.904z M198.5,94.123
		c-7.84,0-14.219-6.381-14.219-14.219c0-7.836,6.379-14.219,14.219-14.219s14.217,6.38,14.217,14.219
		C212.717,87.744,206.34,94.123,198.5,94.123z"/>
	<path fill="#CDCCCC" d="M197.84,75.955c-2.014-3.578-4.183-6.586-4.503-7.025c-3.399,1.604-5.939,4.736-6.726,8.505
		C187.154,77.441,192.158,77.463,197.84,75.955z"/>
	<path fill="#CDCCCC" d="M199.348,80.027l0.479-0.141c-0.305-0.691-0.638-1.383-0.984-2.062c-6.066,1.814-11.953,1.738-12.484,1.727
		l-0.006,0.37c0.003,3.12,1.183,5.968,3.124,8.122C189.75,87.572,193.082,82.053,199.348,80.027z"/>
	<path fill="#CDCCCC" d="M201.116,77.031c0.282,0.58,0.554,1.169,0.808,1.76l0.26,0.627c4.042-0.508,8.057,0.307,8.455,0.392
		c-0.022-2.866-1.045-5.501-2.736-7.567C207.647,72.588,205.611,75.197,201.116,77.031z"/>
	<path fill="#CDCCCC" d="M200.573,81.922c-6.851,2.385-9.31,7.14-9.528,7.585c2.059,1.604,4.647,2.563,7.455,2.563
		c1.684,0.002,3.289-0.342,4.745-0.965c-0.181-1.064-0.886-4.781-2.591-9.211L200.573,81.922z"/>
	<path fill="#CDCCCC" d="M206.553,70.838c-2.148-1.904-4.966-3.062-8.053-3.062c-0.979,0-1.934,0.117-2.846,0.338
		c0.335,0.451,2.542,3.455,4.531,7.109C204.507,73.607,206.332,71.148,206.553,70.838z"/>
	<path fill="#CDCCCC" d="M202.926,81.334c1.59,4.365,2.235,7.918,2.36,8.66c2.721-1.842,4.662-4.762,5.202-8.146
		C210.078,81.719,206.733,80.721,202.926,81.334z"/>
</g>
<path fill="#CDCCCC" d="M157.875,60.904h-23.75c-3.936,0-7.125,3.189-7.125,7.125v23.75c0,3.937,3.189,7.125,7.125,7.125h23.75
	c3.936,0,7.125-3.188,7.125-7.125v-23.75C165,64.094,161.811,60.904,157.875,60.904z M155.453,75.64l0.014,0.604
	c0,6.184-4.705,13.309-13.311,13.309c-2.641,0-5.098-0.773-7.17-2.102c0.367,0.043,0.738,0.068,1.117,0.068
	c2.191,0,4.209-0.75,5.809-2.002c-2.047-0.037-3.773-1.392-4.369-3.25c0.287,0.055,0.576,0.082,0.881,0.082
	c0.428,0,0.841-0.057,1.232-0.162c-2.139-0.432-3.752-2.32-3.752-4.586v-0.061c0.631,0.352,1.351,0.562,2.119,0.588
	c-1.256-0.84-2.082-2.271-2.082-3.895c0-0.855,0.23-1.658,0.633-2.35c2.305,2.83,5.754,4.693,9.641,4.888
	c-0.08-0.343-0.119-0.702-0.119-1.067c0-2.58,2.094-4.676,4.678-4.676c1.346,0,2.561,0.568,3.416,1.477
	c1.064-0.211,2.066-0.601,2.971-1.134c-0.35,1.093-1.09,2.009-2.057,2.589c0.943-0.111,1.848-0.367,2.686-0.736
	C157.162,74.16,156.367,74.982,155.453,75.64z"/>
<path fill="#CDCCCC" d="M262.875,60.904h-23.75c-3.938,0-7.125,3.189-7.125,7.125v23.75c0,3.936,3.187,7.125,7.125,7.125h23.75
	c3.934,0,7.125-3.189,7.125-7.125v-23.75C270,64.094,266.809,60.904,262.875,60.904z M246.25,89.107h-4.75V72.482h4.75V89.107z
	 M244.021,71.463c-1.232,0-2.225-0.996-2.225-2.227s0.997-2.229,2.225-2.229c1.23,0.002,2.229,1.001,2.229,2.229
	C246.25,70.467,245.252,71.463,244.021,71.463z M262.875,89.107h-4.75V78.828c0-1.203-0.344-2.047-1.823-2.047
	c-2.454,0-2.927,2.047-2.927,2.047v10.279h-4.75V72.482h4.75v1.59c0.677-0.521,2.375-1.588,4.75-1.588
	c1.539,0,4.75,0.922,4.75,6.489V89.107z"/>
<rect x="284.5" y="60.904" fill="none" width="38" height="38"/>
<g>
	<path fill="#CDCCCC" d="M313.73,71.136c-0.805,0-1.461-0.657-1.461-1.462v-2.923c0-0.806,0.656-1.462,1.461-1.462h2.923
		c0.806,0,1.462,0.656,1.462,1.462v2.923c0,0.805-0.656,1.462-1.462,1.462H313.73z"/>
	<path fill="#CDCCCC" d="M303.5,74.334c-1.062,0-2.041,0.311-2.883,0.822c0.263-0.082,0.536-0.136,0.823-0.136
		c1.562,0,2.824,1.265,2.824,2.826c0,1.559-1.263,2.826-2.824,2.826c-1.561,0-2.824-1.267-2.824-2.826
		c0-0.29,0.057-0.563,0.137-0.825c-0.514,0.844-0.825,1.822-0.825,2.883c0,3.08,2.492,5.572,5.573,5.572
		c3.076,0,5.574-2.492,5.574-5.572S306.577,74.334,303.5,74.334z"/>
	<g>
		<path fill="#CDCCCC" d="M303.5,71.136c4.841,0,8.77,3.926,8.77,8.769c0,4.845-3.929,8.77-8.77,8.77c-4.842,0-8.77-3.925-8.77-8.77
			C294.73,75.062,298.658,71.136,303.5,71.136 M303.5,68.213c-6.447,0-11.692,5.244-11.692,11.691s5.245,11.693,11.692,11.693
			s11.692-5.246,11.692-11.693S309.947,68.213,303.5,68.213L303.5,68.213z"/>
	</g>
	<path fill="#CDCCCC" d="M315.375,60.904h-23.75c-3.937,0-7.125,3.189-7.125,7.125v23.75c0,3.938,3.188,7.125,7.125,7.125h23.75
		c3.937,0,7.125-3.188,7.125-7.125v-23.75C322.5,64.094,319.312,60.904,315.375,60.904z M319.577,74.059h-9.555
		c1.394,1.554,2.247,3.597,2.247,5.846c0,4.845-3.929,8.77-8.77,8.77c-4.842,0-8.77-3.925-8.77-8.77
		c0-2.249,0.854-4.293,2.247-5.846h-9.555v-6.029c0-2.316,1.886-4.201,4.202-4.201h23.75c2.317,0,4.202,1.885,4.202,4.201V74.059z"
		/>
</g>
<g>
	<g id="XMLID_1_">
		<g>
			<path fill="#FFFEF6" d="M361.109,66.066c3.028-0.193,5.072,1.282,6.357,3.016c0.663,0.895,1.177,1.953,1.345,3.344
				c0.162,1.348-0.068,2.789-0.59,3.934c-0.947,2.075-2.746,3.658-5.212,4.129c-1.341,0.258-2.98,0.132-4.555,0.132
				c-3.035,0-6.345-0.094-9.343,0c-1.492,0.047-2.507,0.666-3.277,1.409c-0.792,0.764-1.44,1.863-1.541,3.146
				c-0.224,2.859,1.677,4.898,3.967,5.376c2.848,0.593,5.108-1.222,5.801-3.344c0.391-1.194,0.236-2.63,0.263-4.392
				c0.743,0,1.486,0,2.229,0c0.432,4.199-0.619,6.915-2.819,8.588c-1.059,0.805-2.511,1.435-4.229,1.507
				c-3.331,0.141-5.953-2.047-6.947-4.522c-0.56-1.394-0.696-3.273-0.197-4.884c0.829-2.675,2.958-4.829,6.325-5.113
				c1.802-0.152,3.761-0.032,5.704-0.032c1.938,0,3.896,0,5.735,0c1.034,0,1.936,0.037,2.721-0.165
				c2.022-0.521,3.72-2.212,3.77-4.785c0.034-1.767-0.772-3.095-1.803-3.933c-1.116-0.908-2.656-1.417-4.425-0.983
				c-1.504,0.368-2.545,1.241-3.213,2.523c-0.681,1.31-0.645,2.947-0.589,5.112c-0.754,0-1.508,0-2.262,0
				c-0.199-3.141,0.141-5.305,1.343-7.014C356.803,67.502,358.681,66.223,361.109,66.066z"/>
		</g>
		<g>
		</g>
	</g>
</g>
</svg>
