<?xml version="1.0" encoding="utf-8"?>
<!-- Generator: Adobe Illustrator 15.0.0, SVG Export Plug-In . SVG Version: 6.00 Build 0)  -->
<!DOCTYPE svg PUBLIC "-//W3C//DTD SVG 1.1//EN" "http://www.w3.org/Graphics/SVG/1.1/DTD/svg11.dtd">
<svg version="1.1" id="Layer_1" xmlns="http://www.w3.org/2000/svg" xmlns:xlink="http://www.w3.org/1999/xlink" x="0px" y="0px"
	 viewBox="0 0 266.593 165.312" enable-background="new 0 0 266.593 165.312"
	 xml:space="preserve">
<g>
	<path fill="#010202" d="M-80.538,295.46h-62.5c-10.357,0-18.75,8.393-18.75,18.75v62.5c0,10.359,8.393,18.75,18.75,18.75h62.5
		c10.356,0,18.75-8.391,18.75-18.75v-62.5C-61.788,303.853-70.181,295.46-80.538,295.46z M-111.788,382.878
		c-20.631,0-37.418-16.793-37.418-37.418c0-20.621,16.787-37.418,37.418-37.418c20.631,0,37.413,16.789,37.413,37.418
		C-74.375,366.091-91.157,382.878-111.788,382.878z"/>
	<path fill="#010202" d="M-113.525,335.067c-5.299-9.416-11.007-17.332-11.85-18.488c-8.946,4.22-15.63,12.464-17.699,22.381
		C-141.645,338.978-128.477,339.034-113.525,335.067z"/>
	<path fill="#010202" d="M-109.557,345.783l1.26-0.37c-0.802-1.819-1.679-3.639-2.591-5.428
		c-15.964,4.775-31.456,4.574-32.854,4.544l-0.016,0.974c0.008,8.211,3.112,15.705,8.221,21.375
		C-134.814,365.638-126.045,351.114-109.557,345.783z"/>
	<path fill="#010202" d="M-104.903,337.899c0.743,1.525,1.457,3.076,2.125,4.631l0.684,1.649c10.637-1.337,21.202,0.808,22.251,1.03
		c-0.06-7.543-2.75-14.477-7.201-19.914C-87.715,326.206-93.074,333.073-104.903,337.899z"/>
	<path fill="#010202" d="M-106.332,350.769c-18.028,6.275-24.499,18.789-25.075,19.961c5.417,4.223,12.23,6.746,19.619,6.746
		c4.431,0.004,8.655-0.9,12.487-2.539c-0.476-2.801-2.331-12.582-6.818-24.24L-106.332,350.769z"/>
	<path fill="#010202" d="M-90.596,321.601c-5.653-5.012-13.068-8.059-21.191-8.059c-2.575,0-5.089,0.308-7.488,0.889
		c0.881,1.188,6.689,9.092,11.924,18.709C-95.98,328.889-91.177,322.418-90.596,321.601z"/>
	<path fill="#010202" d="M-100.141,349.222c4.185,11.488,5.883,20.836,6.212,22.789c7.159-4.846,12.269-12.529,13.689-21.438
		C-81.319,350.235-90.121,347.608-100.141,349.222z"/>
</g>
<path fill="#010202" d="M-83.204,182.571h-62.5c-10.357,0-18.75,8.393-18.75,18.75v62.5c0,10.36,8.393,18.75,18.75,18.75h62.5
	c10.356,0,18.75-8.391,18.75-18.75v-62.5C-64.454,190.964-72.848,182.571-83.204,182.571z M-89.577,221.348l0.035,1.591
	c0,16.272-12.381,35.022-35.027,35.022c-6.949,0-13.415-2.035-18.868-5.53c0.966,0.112,1.943,0.18,2.94,0.18
	c5.767,0,11.076-1.974,15.286-5.269c-5.386-0.098-9.93-3.662-11.498-8.553c0.755,0.145,1.516,0.217,2.318,0.217
	c1.126,0,2.213-0.149,3.244-0.428c-5.628-1.135-9.874-6.105-9.874-12.068v-0.159c1.66,0.925,3.554,1.478,5.577,1.547
	c-3.305-2.21-5.479-5.978-5.479-10.249c0-2.251,0.607-4.364,1.666-6.183c6.065,7.448,15.142,12.351,25.37,12.862
	c-0.211-0.902-0.313-1.848-0.313-2.809c0-6.79,5.51-12.305,12.31-12.305c3.542,0,6.738,1.496,8.989,3.886
	c2.802-0.555,5.438-1.581,7.818-2.983c-0.92,2.875-2.868,5.286-5.412,6.812c2.482-0.293,4.861-0.966,7.066-1.938
	C-85.08,217.455-87.172,219.619-89.577,221.348z"/>
<path fill="#010202" d="M241.421,228.142h-23.75c-3.938,0-7.125,3.189-7.125,7.125v23.75c0,3.936,3.187,7.125,7.125,7.125h23.75
	c3.934,0,7.125-3.189,7.125-7.125v-23.75C248.546,231.331,245.354,228.142,241.421,228.142z M224.796,256.345h-4.75V239.72h4.75
	V256.345z M222.567,238.7c-1.232,0-2.225-0.996-2.225-2.227s0.997-2.229,2.225-2.229c1.23,0.002,2.229,1.001,2.229,2.229
	C224.796,237.704,223.798,238.7,222.567,238.7z M241.421,256.345h-4.75v-10.279c0-1.203-0.344-2.047-1.823-2.047
	c-2.454,0-2.927,2.047-2.927,2.047v10.279h-4.75V239.72h4.75v1.59c0.677-0.521,2.375-1.588,4.75-1.588
	c1.539,0,4.75,0.922,4.75,6.489V256.345z"/>
<g>
	<rect x="134.425" y="323.341" fill="none" width="99.998" height="99.999"/>
	<path fill="#010202" d="M211.347,350.265c-2.118,0-3.845-1.729-3.845-3.847v-7.691c0-2.12,1.727-3.847,3.845-3.847h7.691
		c2.12,0,3.848,1.727,3.848,3.847v7.691c0,2.118-1.728,3.847-3.848,3.847H211.347z"/>
	<path fill="#010202" d="M184.425,358.682c-2.794,0-5.371,0.817-7.587,2.164c0.691-0.216,1.411-0.357,2.167-0.357
		c4.109,0,7.432,3.328,7.432,7.438c0,4.102-3.322,7.438-7.432,7.438c-4.107,0-7.433-3.333-7.433-7.438
		c0-0.764,0.149-1.483,0.36-2.172c-1.353,2.221-2.172,4.796-2.172,7.587c0,8.104,6.559,14.663,14.666,14.663
		c8.095,0,14.669-6.559,14.669-14.663C199.096,365.235,192.521,358.682,184.425,358.682z"/>
	<g>
		<path fill="#010202" d="M184.425,350.265c12.738,0,23.077,10.332,23.077,23.076c0,12.749-10.339,23.077-23.077,23.077
			c-12.742,0-23.078-10.328-23.078-23.077C161.347,360.597,171.683,350.265,184.425,350.265 M184.425,342.573
			c-16.967,0-30.77,13.801-30.77,30.768c0,16.966,13.803,30.771,30.77,30.771c16.966,0,30.769-13.806,30.769-30.771
			C215.193,356.374,201.391,342.573,184.425,342.573L184.425,342.573z"/>
	</g>
	<path fill="#010202" d="M215.674,323.341h-62.499c-10.359,0-18.75,8.393-18.75,18.75v62.499c0,10.362,8.391,18.75,18.75,18.75
		h62.499c10.359,0,18.749-8.388,18.749-18.75v-62.499C234.423,331.733,226.033,323.341,215.674,323.341z M226.734,357.957h-25.146
		c3.667,4.089,5.913,9.465,5.913,15.384c0,12.749-10.339,23.077-23.077,23.077c-12.742,0-23.078-10.328-23.078-23.077
		c0-5.919,2.246-11.298,5.913-15.384h-25.144v-15.866c0-6.096,4.963-11.057,11.059-11.057h62.499
		c6.099,0,11.061,4.961,11.061,11.057V357.957z"/>
</g>
<g>
	<g>
		<path fill="#010202" d="M55.458,345.459H-7.7c-10.174,0-18.421,8.246-18.421,18.421v63.158c0,10.174,8.247,18.421,18.421,18.421
			h63.158c10.174,0,18.421-8.247,18.421-18.421V363.88C73.879,353.705,65.632,345.459,55.458,345.459z M56.041,385.878
			c-2.492,5.463-7.227,9.629-13.716,10.866c-3.528,0.678-7.843,0.347-11.985,0.347c-7.986,0-16.696-0.247-24.586,0
			c-3.927,0.124-6.598,1.753-8.625,3.708c-2.084,2.01-3.791,4.904-4.057,8.281c-0.587,7.524,4.414,12.89,10.439,14.146
			c7.495,1.561,13.444-3.215,15.266-8.799c1.028-3.143,0.622-6.92,0.691-11.557h5.864c1.137,11.05-1.63,18.197-7.419,22.6
			c-2.786,2.117-6.608,3.774-11.127,3.965c-8.767,0.37-15.666-5.387-18.283-11.901c-1.472-3.667-1.832-8.614-0.519-12.853
			c2.181-7.037,7.785-12.706,16.646-13.455c4.74-0.401,9.897-0.084,15.012-0.084h15.092c2.722,0,5.094,0.097,7.159-0.436
			c5.322-1.368,9.789-5.821,9.92-12.591c0.09-4.65-2.032-8.146-4.744-10.35c-2.938-2.392-6.99-3.729-11.644-2.59
			c-3.958,0.971-6.697,3.266-8.455,6.642c-1.792,3.447-1.697,7.756-1.55,13.454h-5.952c-0.524-8.264,0.371-13.96,3.536-18.458
			c2.987-4.245,7.929-7.61,14.32-8.023c7.97-0.509,13.349,3.375,16.73,7.937c1.745,2.354,3.097,5.14,3.539,8.8
			C58.021,379.073,57.413,382.867,56.041,385.878z"/>
	</g>
</g>
<path fill="#CDCCCC" d="M453.546,273.237h-24c-3.866,0-7,3.134-7,7v24c0,3.866,3.134,7,7,7h24c3.866,0,7-3.134,7-7v-24
	C460.546,276.371,457.412,273.237,453.546,273.237z"/>
<g>
	<path fill="#CDCCCC" d="M295.921,273.142h-23.75c-3.936,0-7.125,3.189-7.125,7.125v23.75c0,3.937,3.189,7.125,7.125,7.125h23.75
		c3.936,0,7.125-3.188,7.125-7.125v-23.75C303.046,276.331,299.856,273.142,295.921,273.142z M284.046,306.36
		c-7.84,0-14.219-6.381-14.219-14.219c0-7.836,6.379-14.219,14.219-14.219s14.217,6.38,14.217,14.219
		C298.263,299.981,291.886,306.36,284.046,306.36z"/>
	<path fill="#CDCCCC" d="M283.386,288.192c-2.014-3.578-4.183-6.586-4.503-7.025c-3.399,1.604-5.939,4.736-6.726,8.505
		C272.7,289.679,277.704,289.7,283.386,288.192z"/>
	<path fill="#CDCCCC" d="M284.894,292.265l0.479-0.141c-0.305-0.691-0.638-1.383-0.984-2.062
		c-6.066,1.814-11.953,1.738-12.484,1.727l-0.006,0.37c0.003,3.12,1.183,5.968,3.124,8.122
		C275.296,299.81,278.628,294.29,284.894,292.265z"/>
	<path fill="#CDCCCC" d="M286.662,289.269c0.282,0.58,0.554,1.169,0.808,1.76l0.26,0.627c4.042-0.508,8.057,0.307,8.455,0.392
		c-0.022-2.866-1.045-5.501-2.736-7.567C293.193,284.825,291.157,287.435,286.662,289.269z"/>
	<path fill="#CDCCCC" d="M286.119,294.159c-6.851,2.385-9.31,7.14-9.528,7.585c2.059,1.604,4.647,2.563,7.455,2.563
		c1.684,0.002,3.289-0.342,4.745-0.965c-0.181-1.064-0.886-4.781-2.591-9.211L286.119,294.159z"/>
	<path fill="#CDCCCC" d="M292.099,283.075c-2.148-1.904-4.966-3.062-8.053-3.062c-0.979,0-1.934,0.117-2.846,0.338
		c0.335,0.451,2.542,3.455,4.531,7.109C290.053,285.845,291.878,283.386,292.099,283.075z"/>
	<path fill="#CDCCCC" d="M288.472,293.571c1.59,4.365,2.235,7.918,2.36,8.66c2.721-1.842,4.662-4.762,5.202-8.146
		C295.624,293.956,292.279,292.958,288.472,293.571z"/>
</g>
<path fill="#CDCCCC" d="M243.421,273.142h-23.75c-3.936,0-7.125,3.189-7.125,7.125v23.75c0,3.937,3.189,7.125,7.125,7.125h23.75
	c3.936,0,7.125-3.188,7.125-7.125v-23.75C250.546,276.331,247.356,273.142,243.421,273.142z M240.999,287.877l0.014,0.604
	c0,6.184-4.705,13.309-13.311,13.309c-2.641,0-5.098-0.773-7.17-2.102c0.367,0.043,0.738,0.068,1.117,0.068
	c2.191,0,4.209-0.75,5.809-2.002c-2.047-0.037-3.773-1.392-4.369-3.25c0.287,0.055,0.576,0.082,0.881,0.082
	c0.428,0,0.841-0.057,1.232-0.162c-2.139-0.432-3.752-2.32-3.752-4.586v-0.061c0.631,0.352,1.351,0.562,2.119,0.588
	c-1.256-0.84-2.082-2.271-2.082-3.895c0-0.855,0.23-1.658,0.633-2.35c2.305,2.83,5.754,4.693,9.641,4.888
	c-0.08-0.343-0.119-0.702-0.119-1.067c0-2.58,2.094-4.676,4.678-4.676c1.346,0,2.561,0.568,3.416,1.477
	c1.064-0.211,2.066-0.601,2.971-1.134c-0.35,1.093-1.09,2.009-2.057,2.589c0.943-0.111,1.848-0.367,2.686-0.736
	C242.708,286.397,241.913,287.22,240.999,287.877z"/>
<path fill="#CDCCCC" d="M348.421,273.142h-23.75c-3.938,0-7.125,3.189-7.125,7.125v23.75c0,3.936,3.187,7.125,7.125,7.125h23.75
	c3.934,0,7.125-3.189,7.125-7.125v-23.75C355.546,276.331,352.354,273.142,348.421,273.142z M331.796,301.345h-4.75V284.72h4.75
	V301.345z M329.567,283.7c-1.232,0-2.225-0.996-2.225-2.227s0.997-2.229,2.225-2.229c1.23,0.002,2.229,1.001,2.229,2.229
	C331.796,282.704,330.798,283.7,329.567,283.7z M348.421,301.345h-4.75v-10.279c0-1.203-0.344-2.047-1.823-2.047
	c-2.454,0-2.927,2.047-2.927,2.047v10.279h-4.75V284.72h4.75v1.59c0.677-0.521,2.375-1.588,4.75-1.588
	c1.539,0,4.75,0.922,4.75,6.489V301.345z"/>
<rect x="370.046" y="273.142" fill="none" width="38" height="38"/>
<g>
	<path fill="#CDCCCC" d="M399.276,283.373c-0.805,0-1.461-0.657-1.461-1.462v-2.923c0-0.806,0.656-1.462,1.461-1.462h2.923
		c0.806,0,1.462,0.656,1.462,1.462v2.923c0,0.805-0.656,1.462-1.462,1.462H399.276z"/>
	<path fill="#CDCCCC" d="M389.046,286.571c-1.062,0-2.041,0.311-2.883,0.822c0.263-0.082,0.536-0.136,0.823-0.136
		c1.562,0,2.824,1.265,2.824,2.826c0,1.559-1.263,2.826-2.824,2.826c-1.561,0-2.824-1.267-2.824-2.826
		c0-0.29,0.057-0.563,0.137-0.825c-0.514,0.844-0.825,1.822-0.825,2.883c0,3.08,2.492,5.572,5.573,5.572
		c3.076,0,5.574-2.492,5.574-5.572S392.123,286.571,389.046,286.571z"/>
	<g>
		<path fill="#CDCCCC" d="M389.046,283.373c4.841,0,8.77,3.926,8.77,8.769c0,4.845-3.929,8.77-8.77,8.77
			c-4.842,0-8.77-3.925-8.77-8.77C380.276,287.299,384.204,283.373,389.046,283.373 M389.046,280.45
			c-6.447,0-11.692,5.244-11.692,11.691s5.245,11.693,11.692,11.693s11.692-5.246,11.692-11.693S395.493,280.45,389.046,280.45
			L389.046,280.45z"/>
	</g>
	<path fill="#CDCCCC" d="M400.921,273.142h-23.75c-3.937,0-7.125,3.189-7.125,7.125v23.75c0,3.938,3.188,7.125,7.125,7.125h23.75
		c3.937,0,7.125-3.188,7.125-7.125v-23.75C408.046,276.331,404.857,273.142,400.921,273.142z M405.123,286.296h-9.555
		c1.394,1.554,2.247,3.597,2.247,5.846c0,4.845-3.929,8.77-8.77,8.77c-4.842,0-8.77-3.925-8.77-8.77
		c0-2.249,0.854-4.293,2.247-5.846h-9.555v-6.029c0-2.316,1.886-4.201,4.202-4.201h23.75c2.317,0,4.202,1.885,4.202,4.201V286.296z"
		/>
</g>
<g>
	<g id="XMLID_1_">
		<g>
			<path fill="#FFFEF6" d="M433.807,302.789c2.848,0.593,5.108-1.222,5.801-3.344c0.391-1.194,0.236-2.63,0.263-4.392
				c0.743,0,1.486,0,2.229,0c0.432,4.199-0.619,6.915-2.819,8.588c-1.059,0.805-2.511,1.435-4.229,1.507
				c-3.331,0.141-5.953-2.047-6.947-4.522c-0.56-1.394-0.696-3.273-0.197-4.884c0.829-2.675,2.958-4.829,6.325-5.113
				c1.802-0.152,3.761-0.032,5.704-0.032c1.938,0,3.896,0,5.735,0c1.034,0,1.936,0.037,2.721-0.165
				c2.022-0.521,3.72-2.212,3.77-4.785c0.034-1.767-0.772-3.095-1.803-3.933c-1.116-0.908-2.656-1.417-4.425-0.983
				c-1.504,0.368-2.545,1.241-3.213,2.523c-0.681,1.31-0.645,2.947-0.589,5.112c-0.754,0-1.508,0-2.262,0
				c-0.199-3.141,0.141-5.305,1.343-7.014c1.136-1.613,3.014-2.893,5.442-3.049c3.028-0.193,5.072,1.282,6.357,3.016
				c0.663,0.895,1.177,1.953,1.345,3.344c0.162,1.348-0.068,2.789-0.59,3.934c-0.947,2.075-2.746,3.658-5.212,4.129
				c-1.341,0.258-2.98,0.132-4.555,0.132c-3.035,0-6.345-0.094-9.343,0c-1.492,0.047-2.507,0.666-3.277,1.409
				c-0.792,0.764-1.44,1.863-1.541,3.146C429.616,300.272,431.517,302.312,433.807,302.789z"/>
		</g>
		<g>
		</g>
	</g>
</g>
<g>
	<g>
		<path fill="#FFFFFF" d="M214.698,359.411c0,2.887-2.369,5.229-5.292,5.229H-44.562c-2.921,0-5.291-2.342-5.291-5.229V208.062
			c0-2.887,2.37-5.228,5.291-5.228h253.969c2.923,0,5.292,2.34,5.292,5.228V359.411z"/>
		<path fill="#1E1E1C" d="M209.406,366.526H-44.562c-3.959,0-7.179-3.191-7.179-7.115V208.062c0-3.923,3.22-7.116,7.179-7.116
			h253.969c3.958,0,7.18,3.192,7.18,7.116v151.349C216.586,363.335,213.364,366.526,209.406,366.526z M-44.562,204.722
			c-1.877,0-3.403,1.498-3.403,3.34v151.349c0,1.842,1.526,3.34,3.403,3.34h253.969c1.876,0,3.402-1.498,3.402-3.34V208.062
			c0-1.842-1.526-3.34-3.402-3.34H-44.562z"/>
	</g>
	<g>
		<rect x="-14.661" y="221.801" fill="#010202" width="228.145" height="141.31"/>
	</g>
	<g>
		<rect x="-48.28" y="221.801" fill="#CDCBCB" width="33.619" height="141.31"/>
	</g>
	<g>
		<rect x="-49.718" y="218.116" fill="#1E1E1C" width="264.55" height="3.775"/>
	</g>
	<g>
		<circle fill="#1E1E1C" cx="-40.233" cy="212.003" r="2.561"/>
	</g>
	<g>
		<circle fill="#1E1E1C" cx="-28.93" cy="212.003" r="2.561"/>
	</g>
	<g>
		<circle fill="#1E1E1C" cx="-17.627" cy="212.003" r="2.561"/>
	</g>
	<g>
		<rect x="11.138" y="300.628" fill="#A7D4F0" width="103.106" height="8.09"/>
	</g>
	<g>
		<rect x="-42.794" y="231.062" fill="#FFFFFF" width="22.606" height="5.232"/>
	</g>
	<g>
		<rect x="-42.794" y="238.473" fill="#FFFFFF" width="17.887" height="5.233"/>
	</g>
	<g>
		<rect x="-42.794" y="245.884" fill="#FFFFFF" width="22.606" height="5.233"/>
	</g>
	<g>
		<rect x="-42.794" y="253.294" fill="#FFFFFF" width="17.887" height="5.233"/>
	</g>
	<g>
		<rect x="-42.794" y="260.705" fill="#FFFFFF" width="17.887" height="5.233"/>
	</g>
	<g>
		<rect x="11.138" y="231.127" fill="#CDCBCB" width="38.832" height="8.091"/>
	</g>
	<g>
		<rect x="11.138" y="245.028" fill="#ED7085" width="16.839" height="8.09"/>
	</g>
	<g>
		<rect x="11.138" y="342.327" fill="#ED7085" width="17.619" height="8.09"/>
	</g>
	<g>
		<rect x="34.149" y="342.327" fill="#A2D3B9" width="17.618" height="8.09"/>
	</g>
	<g>
		<rect x="57.161" y="342.327" fill="#A2D3B9" width="17.618" height="8.09"/>
	</g>
	<g>
		<rect x="79.771" y="342.327" fill="#ED7085" width="34.474" height="8.09"/>
	</g>
	<g>
		<rect x="11.138" y="328.428" fill="#CDCBCB" width="38.832" height="8.091"/>
	</g>
	<g>
		<rect x="55.364" y="328.428" fill="#CDCBCB" width="38.832" height="8.091"/>
	</g>
	<g>
		<rect x="11.138" y="286.728" fill="#A7D4F0" width="103.106" height="8.09"/>
	</g>
	<g>
		<rect x="119.638" y="286.728" fill="#A2D3B9" width="33.799" height="8.09"/>
	</g>
	<g>
		<rect x="158.831" y="286.728" fill="#ED7085" width="19.055" height="8.09"/>
	</g>
	<g>
		<rect x="119.638" y="300.628" fill="#A2D3B9" width="33.799" height="8.09"/>
	</g>
	<g>
		<rect x="158.831" y="300.628" fill="#ED7085" width="19.055" height="8.09"/>
	</g>
	<g>
		<rect x="11.138" y="314.528" fill="#A7D4F0" width="55.644" height="8.09"/>
	</g>
	<g>
		<rect x="72.175" y="314.528" fill="#A2D3B9" width="81.262" height="8.09"/>
	</g>
	<g>
		<rect x="158.831" y="314.528" fill="#ED7085" width="5.394" height="8.09"/>
	</g>
	<g>
		<rect x="169.438" y="314.528" fill="#ED7085" width="5.394" height="8.09"/>
	</g>
	<g>
		<rect x="180.585" y="314.528" fill="#ED7085" width="5.393" height="8.09"/>
	</g>
	<g>
		<rect x="11.138" y="272.828" fill="#CDCBCB" width="38.832" height="8.09"/>
	</g>
	<g>
		<rect x="11.138" y="258.928" fill="#CDCBCB" width="38.832" height="8.09"/>
	</g>
	<g>
		<rect x="33.132" y="245.188" fill="#ED7085" width="16.838" height="8.09"/>
	</g>
	<g>
		<rect x="55.364" y="245.188" fill="#A7D4F0" width="58.88" height="8.09"/>
	</g>
	<g>
		<path fill="#1E1E1C" d="M209.54,366.526H-44.426c-3.96,0-7.181-3.191-7.181-7.115V208.062c0-3.923,3.221-7.116,7.181-7.116H209.54
			c3.96,0,7.18,3.192,7.18,7.116v151.349C216.72,363.335,213.5,366.526,209.54,366.526z M-44.426,204.722
			c-1.879,0-3.405,1.498-3.405,3.34v151.349c0,1.842,1.526,3.34,3.405,3.34H209.54c1.878,0,3.403-1.498,3.403-3.34V208.062
			c0-1.842-1.525-3.34-3.403-3.34H-44.426z"/>
	</g>
</g>
<g>
	<g>
		<defs>
			<path id="SVGID_1_" d="M266.593,162.932c0,1.02-0.831,1.847-1.856,1.847h-89.15c-1.024,0-1.857-0.827-1.857-1.847V2.446
				c0-1.02,0.833-1.846,1.857-1.846h89.15c1.025,0,1.856,0.826,1.856,1.846V162.932z"/>
		</defs>
		<clipPath id="SVGID_2_">
			<use xlink:href="#SVGID_1_"  overflow="visible"/>
		</clipPath>
		<g clip-path="url(#SVGID_2_)">
			<rect x="173.729" y="0.6" fill="#1E1E1C" width="92.795" height="164.712"/>
		</g>
		<g clip-path="url(#SVGID_2_)">
			<rect x="173.729" fill="#CDCBCB" width="92.793" height="24.321"/>
		</g>
	</g>
	<g>
		<defs>
			<path id="SVGID_3_" d="M165.642,161.489c0,1.818-1.482,3.29-3.31,3.29H3.528c-1.826,0-3.308-1.472-3.308-3.29V114.48
				c0-1.816,1.482-3.289,3.308-3.289h158.804c1.827,0,3.31,1.473,3.31,3.289V161.489z"/>
		</defs>
		<clipPath id="SVGID_4_">
			<use xlink:href="#SVGID_3_"  overflow="visible"/>
		</clipPath>
		<g clip-path="url(#SVGID_4_)">
			<rect x="0.439" y="111.191" fill="#A2D3B9" width="164.981" height="54.121"/>
		</g>
	</g>
	<g>
		<defs>
			<path id="SVGID_5_" d="M165.42,99.121c0,1.817-1.48,3.29-3.308,3.29H3.309c-1.828,0-3.309-1.473-3.309-3.29V3.889
				C0,2.072,1.481,0.6,3.309,0.6h158.804c1.827,0,3.308,1.472,3.308,3.29V99.121z"/>
		</defs>
		<clipPath id="SVGID_6_">
			<use xlink:href="#SVGID_5_"  overflow="visible"/>
		</clipPath>
		<g clip-path="url(#SVGID_6_)">
			<rect fill="#1E1E1C" width="165.42" height="102.411"/>
		</g>
	</g>
	<g>
		<circle fill="#FFFFFF" cx="193.05" cy="144.786" r="10.753"/>
	</g>
	<g>
		<rect x="182.13" y="38.979" fill="#A7D4F0" width="76.751" height="63.431"/>
	</g>
	<g>
		<rect x="207.511" y="44.13" fill="#7EB9E6" width="25.23" height="25.231"/>
	</g>
	<g>
		<rect x="187.788" y="71.849" fill="#7EB9E6" width="64.521" height="4.03"/>
	</g>
	<g>
		<rect x="200.048" y="78.835" fill="#7EB9E6" width="39.467" height="4.029"/>
	</g>
	<g>
		<rect x="194.731" y="87.662" fill="#BBDFF7" width="50.481" height="10.662"/>
	</g>
	<g>
		<path fill="#FFFFFF" d="M258.691,115.203c0,2.943-2.387,5.33-5.332,5.33h-66.09c-2.945,0-5.332-2.387-5.332-5.33l0,0
			c0-2.944,2.387-5.331,5.332-5.331h66.09C256.305,109.872,258.691,112.258,258.691,115.203L258.691,115.203z"/>
	</g>
	<g>
		<path fill="#ED7085" d="M192.994,12.474c0,0.842-0.684,1.525-1.526,1.525h-9.152c-0.841,0-1.523-0.683-1.523-1.525l0,0
			c0-0.843,0.683-1.525,1.523-1.525h9.152C192.311,10.949,192.994,11.631,192.994,12.474L192.994,12.474z"/>
	</g>
	<g>
		<path fill="#ED7085" d="M192.994,16.959c0,0.843-0.684,1.526-1.526,1.526h-9.152c-0.841,0-1.523-0.683-1.523-1.526l0,0
			c0-0.843,0.683-1.525,1.523-1.525h9.152C192.311,15.434,192.994,16.117,192.994,16.959L192.994,16.959z"/>
	</g>
	<g>
		<path fill="#ED7085" d="M192.994,7.989c0,0.842-0.684,1.525-1.526,1.525h-9.152c-0.841,0-1.523-0.683-1.523-1.525l0,0
			c0-0.843,0.683-1.525,1.523-1.525h9.152C192.311,6.463,192.994,7.146,192.994,7.989L192.994,7.989z"/>
	</g>
	<g>
		<path fill="#ED7085" d="M201.026,151.983c-0.557-0.247-1.183-0.498-1.868-0.747c-2.83-1.032-3.734-1.901-3.734-3.764
			c0-1.118,0.864-0.752,1.245-2.8c0.155-0.85,0.919-0.013,1.065-1.952c0-0.774-0.416-0.966-0.416-0.966s0.211-1.144,0.294-2.023
			c0.103-1.097-0.633-3.931-4.56-3.931c-3.928,0-4.665,2.833-4.562,3.931c0.083,0.879,0.294,2.023,0.294,2.023
			s-0.417,0.192-0.417,0.966c0.146,1.939,0.909,1.103,1.067,1.952c0.379,2.048,1.243,1.682,1.243,2.8
			c0,1.863-0.903,2.732-3.733,3.764c-0.685,0.25-1.312,0.5-1.869,0.747c1.969,2.179,4.808,3.557,7.977,3.557
			C196.219,155.541,199.058,154.163,201.026,151.983z"/>
	</g>
	<g>
		<rect x="207.511" y="134.032" fill="#A2D3B9" width="51.181" height="21.508"/>
	</g>
	<g>
		<path fill="#ED7085" d="M253.858,138.132c0,0.937-0.759,1.697-1.696,1.697h-7.038c-0.938,0-1.698-0.76-1.698-1.697l0,0
			c0-0.938,0.76-1.697,1.698-1.697h7.038C253.1,136.435,253.858,137.194,253.858,138.132L253.858,138.132z"/>
	</g>
	<g>
		<path fill="#ED7085" d="M239.173,7.565l-2.965-1.376c-0.055-0.027-0.134-0.027-0.212-0.027c-0.08,0-0.158,0-0.213,0.027
			l-2.78,1.296l-2.779-1.296c-0.052-0.027-0.132-0.027-0.214-0.027c-0.076,0-0.157,0-0.209,0.027l-2.992,1.376
			c-0.186,0.08-0.292,0.292-0.292,0.477v9.001c0,0.265,0.213,0.503,0.505,0.503c0.079,0,0.131-0.026,0.211-0.052l2.777-1.271
			l2.783,1.271c0.052,0.026,0.132,0.052,0.21,0.052c0.081,0,0.159-0.026,0.213-0.052l2.78-1.271l2.753,1.271
			c0.08,0.026,0.132,0.052,0.213,0.052c0.29,0,0.503-0.238,0.503-0.503V8.042C239.465,7.857,239.358,7.646,239.173,7.565z
			 M229.509,15.35l-1.984,0.9V8.36l1.984-0.926V15.35z M232.501,16.25l-1.986-0.9V7.434l1.986,0.926V16.25z M235.491,15.35
			l-1.984,0.9V8.36l1.984-0.926V15.35z M238.458,16.25l-1.959-0.9V7.434l1.959,0.926V16.25z"/>
	</g>
	<g id="photo_1_">
		<g>
			<path fill="#ED7085" d="M213.918,6.034h-8.129c-0.814,0-1.476,0.662-1.476,1.479v8.866c0,0.815,0.661,1.478,1.476,1.478h8.129
				c0.817,0,1.478-0.662,1.478-1.478V7.512C215.396,6.696,214.735,6.034,213.918,6.034z M214.657,16.378
				c0,0.407-0.332,0.738-0.739,0.738h-8.129c-0.406,0-0.737-0.332-0.737-0.738V7.512c0-0.408,0.331-0.739,0.737-0.739h8.129
				c0.407,0,0.739,0.331,0.739,0.739V16.378z"/>
		</g>
		<g>
			<path fill="#ED7085" d="M213.547,7.512h-7.387c-0.205,0-0.371,0.164-0.371,0.369v6.65c0,0.205,0.166,0.369,0.371,0.369h7.387
				c0.206,0,0.371-0.165,0.371-0.369v-6.65C213.918,7.676,213.753,7.512,213.547,7.512z M213.547,7.881v5.124l-1.198-1.305
				c-0.072-0.08-0.171-0.125-0.278-0.125c-0.105,0-0.207,0.045-0.276,0.125l-0.962,1.091l-2.919-3.307
				c-0.068-0.081-0.169-0.125-0.275-0.125c-0.107,0-0.208,0.045-0.277,0.125l-1.2,1.384V7.881H213.547z M206.16,11.427l1.478-1.699
				l2.98,3.377l0.214,0.243l1.02,1.182h-5.691V11.427z M212.345,14.531l-1.266-1.461l0.991-1.125l1.477,1.618v0.968H212.345z"/>
		</g>
		<g>
			<path fill="#ED7085" d="M211.332,10.837c0.611,0,1.107-0.497,1.107-1.108c0-0.613-0.496-1.109-1.107-1.109
				c-0.614,0-1.109,0.496-1.109,1.109C210.223,10.34,210.718,10.837,211.332,10.837z M211.332,8.989c0.406,0,0.738,0.332,0.738,0.74
				c0,0.407-0.332,0.738-0.738,0.738c-0.408,0-0.739-0.331-0.739-0.738C210.593,9.321,210.924,8.989,211.332,8.989z"/>
		</g>
	</g>
	<g>
		<path fill="#ED7085" d="M261.858,11.927c0,0.577-0.468,1.044-1.044,1.044h-3.877v3.878c0,0.577-0.467,1.045-1.046,1.044
			c-0.288,0-0.548-0.117-0.736-0.306c-0.191-0.189-0.307-0.449-0.307-0.738v-3.879h-3.88c-0.288,0-0.55-0.117-0.738-0.306
			c-0.188-0.189-0.305-0.45-0.305-0.738c0-0.577,0.467-1.044,1.045-1.044h3.878V7.004c0-0.577,0.467-1.044,1.045-1.044
			c0.577,0,1.044,0.467,1.044,1.044v3.879h3.878C261.392,10.883,261.858,11.35,261.858,11.927z"/>
	</g>
	<g>
		<path fill="#1E1E1C" d="M253.468,117.385l-1.253-1.253c0.218-0.354,0.351-0.766,0.351-1.212c0-1.28-1.038-2.317-2.317-2.317
			c-1.281,0-2.318,1.038-2.318,2.317c0,1.28,1.037,2.318,2.318,2.318c0.445,0,0.856-0.132,1.211-0.35l1.253,1.253
			c0.208,0.209,0.547,0.209,0.756,0C253.677,117.933,253.677,117.594,253.468,117.385z M250.248,116.525
			c-0.888,0-1.605-0.718-1.605-1.605c0-0.886,0.718-1.604,1.605-1.604c0.886,0,1.604,0.718,1.604,1.604
			C251.853,115.807,251.134,116.525,250.248,116.525z"/>
	</g>
	<g>
		<circle fill="#FFFFFF" cx="82.622" cy="115.38" r="9.501"/>
		<path fill="#FFFFFF" d="M82.623,126.749c-6.269,0-11.368-5.1-11.368-11.368c0-6.268,5.1-11.366,11.368-11.366
			c6.266,0,11.366,5.099,11.366,11.366C93.989,121.648,88.889,126.749,82.623,126.749z M82.623,107.745
			c-4.211,0-7.635,3.426-7.635,7.635c0,4.211,3.424,7.637,7.635,7.637c4.209,0,7.634-3.426,7.634-7.637
			C90.257,111.171,86.832,107.745,82.623,107.745z"/>
	</g>
	<g>
		<path fill="#ED7085" d="M89.668,121.74c-0.493-0.218-1.047-0.44-1.651-0.661c-2.5-0.911-3.297-1.679-3.297-3.325
			c0-0.987,0.762-0.665,1.098-2.474c0.138-0.751,0.812-0.012,0.94-1.725c0-0.683-0.366-0.853-0.366-0.853s0.188-1.01,0.258-1.788
			c0.092-0.969-0.558-3.472-4.026-3.472c-3.472,0-4.12,2.503-4.03,3.472c0.073,0.778,0.26,1.788,0.26,1.788s-0.367,0.17-0.367,0.853
			c0.13,1.713,0.804,0.974,0.941,1.725c0.334,1.809,1.099,1.486,1.099,2.474c0,1.646-0.798,2.415-3.298,3.325
			c-0.605,0.221-1.158,0.443-1.652,0.661c1.74,1.925,4.248,3.142,7.048,3.142C85.422,124.882,87.928,123.665,89.668,121.74z"/>
	</g>
	<g>
		<rect x="5.841" y="5.683" fill="#7EB9E6" width="25.231" height="25.231"/>
	</g>
	<g>
		<path fill="#ED7085" d="M63.479,26.294c0,2.347-1.901,4.25-4.248,4.25H41.605c-2.347,0-4.249-1.902-4.249-4.25l0,0
			c0-2.347,1.902-4.25,4.249-4.25h17.626C61.578,22.045,63.479,23.947,63.479,26.294L63.479,26.294z"/>
	</g>
	<g>
		<path fill="#ED7085" d="M94.892,26.294c0,2.347-1.902,4.25-4.25,4.25H73.019c-2.347,0-4.251-1.902-4.251-4.25l0,0
			c0-2.347,1.904-4.25,4.251-4.25h17.623C92.989,22.045,94.892,23.947,94.892,26.294L94.892,26.294z"/>
	</g>
	<g>
		<path fill="#ED7085" d="M126.305,26.294c0,2.347-1.901,4.25-4.25,4.25H104.43c-2.348,0-4.248-1.902-4.248-4.25l0,0
			c0-2.347,1.9-4.25,4.248-4.25h17.625C124.403,22.045,126.305,23.947,126.305,26.294L126.305,26.294z"/>
	</g>
	<g>
		<path fill="#ED7085" d="M157.717,26.294c0,2.347-1.901,4.25-4.248,4.25h-17.627c-2.346,0-4.249-1.902-4.249-4.25l0,0
			c0-2.347,1.903-4.25,4.249-4.25h17.627C155.815,22.045,157.717,23.947,157.717,26.294L157.717,26.294z"/>
	</g>
	<g>
		<path fill="#FFFFFF" d="M158.051,11.549c0,2.944-2.388,5.331-5.331,5.331H86.628c-2.943,0-5.331-2.387-5.331-5.331l0,0
			c0-2.944,2.388-5.33,5.331-5.33h66.092C155.663,6.219,158.051,8.605,158.051,11.549L158.051,11.549z"/>
	</g>
	<g>
		<path fill="#1E1E1C" d="M151.762,13.732l-1.255-1.253c0.22-0.354,0.351-0.765,0.351-1.211c0-1.28-1.036-2.318-2.317-2.318
			c-1.28,0-2.317,1.038-2.317,2.318c0,1.279,1.037,2.318,2.317,2.318c0.445,0,0.858-0.132,1.212-0.351l1.253,1.253
			c0.209,0.208,0.548,0.208,0.757,0C151.97,14.28,151.97,13.941,151.762,13.732z M148.54,12.872c-0.886,0-1.604-0.718-1.604-1.604
			s0.719-1.604,1.604-1.604s1.604,0.718,1.604,1.604S149.426,12.872,148.54,12.872z"/>
	</g>
	<g>
		<rect x="5.841" y="38.979" fill="#A7D4F0" width="150.342" height="57.568"/>
	</g>
	<g>
		<rect x="11.882" y="43.211" fill="#7EB9E6" width="36.807" height="36.807"/>
	</g>
	<g>
		<rect x="63.149" y="44.276" fill="#7EB9E6" width="81.506" height="4.031"/>
	</g>
	<g>
		<rect x="63.149" y="51.533" fill="#7EB9E6" width="81.506" height="4.03"/>
	</g>
	<g>
		<rect x="63.149" y="58.995" fill="#7EB9E6" width="60.871" height="4.03"/>
	</g>
	<g>
		<rect x="63.149" y="80.851" fill="#BBDFF7" width="39.123" height="10.661"/>
	</g>
	<g>
		<rect x="105.48" y="80.677" fill="#BBDFF7" width="39.121" height="10.661"/>
	</g>
	<g>
		<rect x="11.882" y="119.311" fill="#75C095" width="23.238" height="7.874"/>
	</g>
	<g>
		<path fill="#ED7085" d="M148.027,123.264c0,1.856-1.503,3.36-3.359,3.36h-13.938c-1.855,0-3.358-1.504-3.358-3.36l0,0
			c0-1.856,1.503-3.361,3.358-3.361h13.938C146.524,119.903,148.027,121.408,148.027,123.264L148.027,123.264z"/>
	</g>
	<g>
		<rect x="12.436" y="132.058" fill="#CCE4D5" width="136.095" height="4.948"/>
	</g>
	<g>
		<rect x="12.436" y="140.439" fill="#CCE4D5" width="136.095" height="4.949"/>
	</g>
	<g>
		<rect x="23.501" y="148.822" fill="#CCE4D5" width="113.962" height="4.948"/>
	</g>
</g>
</svg>
